<svg width="319" height="31" viewBox="0 0 319 31" fill="none" xmlns="http://www.w3.org/2000/svg">
<path d="M298.175 16.5179C297.741 16.5431 297.302 16.5604 296.876 16.5982C296.599 16.6218 296.481 16.5526 296.296 16.5163C296.235 16.5037 296.169 16.4785 296.112 16.4817C295.681 16.5069 295.251 16.5352 294.821 16.5636C294.689 16.625 294.606 16.7069 294.404 16.7368C294.206 16.7652 293.973 16.7652 293.754 16.7793C293.464 16.7967 293.174 16.814 292.885 16.8297C292.74 16.8376 292.621 16.8675 292.573 16.9242C292.564 16.9337 292.661 16.9573 292.713 16.9715C292.889 17.0187 293.06 17.0723 293.253 17.1085C293.438 17.1431 293.666 17.0864 293.864 17.1305C294.307 17.2297 294.312 17.2282 294.65 17.2093C294.939 17.1919 295.229 17.1731 295.519 17.1605C295.576 17.1573 295.642 17.1809 295.703 17.1935C295.888 17.2282 296.006 17.3069 296.279 17.277C296.485 17.2534 296.713 17.2486 296.928 17.236C297.108 17.2817 297.275 17.3337 297.468 17.3699C297.648 17.4046 297.701 17.4313 297.605 17.477C297.517 17.5195 297.394 17.5369 297.231 17.54C297.086 17.5416 296.941 17.5557 296.797 17.5636C296.722 17.5683 296.652 17.5715 296.581 17.5762C296.305 17.5935 296.305 17.5935 295.8 17.4928C295.602 17.4534 295.378 17.5085 295.19 17.4707C295.062 17.4455 294.953 17.4077 294.83 17.3809C294.777 17.3699 294.694 17.3683 294.628 17.3715C294.408 17.3825 294.189 17.3904 293.978 17.4109C293.829 17.425 293.741 17.4691 293.758 17.5132C293.763 17.5305 293.868 17.5557 293.93 17.5573C294.07 17.5605 294.219 17.5384 294.355 17.5494C294.487 17.5605 294.623 17.592 294.72 17.6266C294.917 17.6991 295.141 17.6345 295.33 17.6534C295.528 17.6739 295.69 17.7369 295.879 17.7747C295.927 17.7841 296.019 17.7683 296.094 17.7636C296.309 17.7526 296.524 17.7432 296.74 17.7321C296.92 17.7778 297.113 17.8187 297.275 17.8707C297.569 17.9652 297.886 18.0014 298.268 17.9557C298.483 17.9306 298.693 17.94 298.865 18.0014C299.04 18.0644 299.242 18.0581 299.466 18.0455C299.673 18.0329 299.883 17.9983 300.094 18.0424C300.551 18.14 300.555 18.1447 301.095 18.1069C301.258 18.0959 301.38 18.0928 301.503 18.129C301.617 18.1621 301.74 18.1904 301.859 18.2219C302.074 18.2109 302.294 18.1999 302.509 18.1873C302.785 18.1699 302.939 18.192 303.005 18.2802C303.044 18.3337 303.062 18.3825 303.159 18.4188C303.273 18.4629 303.396 18.4613 303.562 18.4487C303.721 18.4377 303.835 18.4203 303.901 18.3637C303.927 18.34 303.98 18.318 304.028 18.2991C304.067 18.2849 304.129 18.2629 304.164 18.266C304.23 18.2723 304.318 18.2896 304.34 18.3101C304.555 18.5007 304.555 18.5022 304.774 18.5574C305.016 18.6188 305.266 18.6739 305.486 18.7432C305.683 18.8046 305.881 18.7778 306.096 18.7778C306.258 18.7778 306.364 18.8188 306.351 18.8597C306.342 18.8834 306.28 18.918 306.228 18.9211C305.797 18.9526 305.363 18.9794 304.928 19.0015C304.875 19.0046 304.81 18.9763 304.748 18.9621C304.625 18.9337 304.515 18.8896 304.384 18.8802C304.252 18.8707 304.098 18.8944 303.953 18.9022C303.808 18.9101 303.655 18.9306 303.523 18.918C303.391 18.9054 303.286 18.8597 303.163 18.8298C303.106 18.8156 303.027 18.7952 302.979 18.7999C302.658 18.8377 302.421 18.7857 302.193 18.7164C302.144 18.7022 302.061 18.6928 302 18.6959C301.49 18.7227 300.985 18.7542 300.476 18.7841C300.27 18.7967 300.103 18.7416 300.059 18.6487C300.037 18.5967 299.993 18.5448 299.993 18.4928C299.993 18.3983 299.752 18.3463 299.576 18.3573C299.286 18.3731 298.992 18.3857 298.707 18.4093C298.474 18.4282 298.276 18.4093 298.118 18.3526C297.934 18.288 297.723 18.3006 297.512 18.318C297.354 18.3306 297.31 18.3825 297.319 18.5133C297.328 18.6188 297.253 18.6518 296.968 18.6692C296.608 18.6912 296.243 18.7133 295.879 18.7306C295.822 18.7337 295.756 18.707 295.699 18.6928C295.576 18.6644 295.466 18.6188 295.335 18.6093C295.203 18.5983 295.049 18.6219 294.904 18.6314C294.759 18.6392 294.606 18.6613 294.474 18.6503C294.342 18.6392 294.232 18.592 294.114 18.5621C294.057 18.5479 293.987 18.5274 293.93 18.5306C293.64 18.5432 293.35 18.5621 293.06 18.5794C292.735 18.5983 292.735 18.5983 292.274 18.5007C292.064 18.4566 291.853 18.4912 291.646 18.5038C291.427 18.5164 291.22 18.5227 291.049 18.4597C290.935 18.4188 290.808 18.3936 290.672 18.4014C290.307 18.4203 289.947 18.444 289.583 18.4629C289.521 18.466 289.438 18.4581 289.39 18.444C289.157 18.3778 288.929 18.3258 288.604 18.3589C288.323 18.3873 288.02 18.3888 287.739 18.4156C287.585 18.4298 287.515 18.4802 287.546 18.5196C287.563 18.54 287.655 18.5637 287.717 18.5637C287.857 18.5652 288.011 18.5416 288.143 18.5511C288.415 18.5699 288.551 18.7022 288.907 18.666C289.117 18.644 289.337 18.6361 289.556 18.6298C289.614 18.6282 289.675 18.6581 289.736 18.6739C289.912 18.7164 290.066 18.7715 290.32 18.7432C290.531 18.7211 290.755 18.7148 290.97 18.7022C291.313 18.6818 291.313 18.6833 291.756 18.7794C291.967 18.8251 292.178 18.7889 292.384 18.7778C292.538 18.77 292.683 18.7542 292.806 18.7763C292.994 18.8093 293.13 18.8849 293.363 18.8802C293.583 18.8755 293.798 18.8534 294.017 18.8455C294.153 18.8408 294.281 18.866 294.391 18.9085C294.505 18.9511 294.628 18.97 294.777 18.9605C294.992 18.9479 295.212 18.9322 295.431 18.9243C295.493 18.9227 295.563 18.9369 295.62 18.9495C295.743 18.9778 295.861 19.0109 295.98 19.0408C296.195 19.0314 296.415 19.0282 296.625 19.0093C296.788 18.9952 296.902 19.0015 297.034 19.033C297.201 19.0755 297.337 19.1511 297.609 19.1149C297.745 19.0975 297.903 19.1023 298.039 19.0865C298.206 19.066 298.32 19.0739 298.439 19.1211C298.663 19.2109 298.944 19.2125 299.233 19.1778C299.55 19.14 299.787 19.1842 300.024 19.2535C300.274 19.3259 300.274 19.3243 300.467 19.4991C300.524 19.5495 300.687 19.5731 300.823 19.5637C301.051 19.5479 301.249 19.5558 301.416 19.6157C301.591 19.6802 301.802 19.6724 302.017 19.655C302.302 19.6314 302.588 19.6109 302.821 19.7023C302.935 19.7464 303.058 19.7574 303.211 19.7464C303.646 19.718 304.085 19.7007 304.511 19.6661C304.77 19.644 304.919 19.6944 305.095 19.7369C305.332 19.7952 305.591 19.8472 305.591 19.9716C305.591 19.992 305.652 20.0157 305.705 20.0314C305.819 20.0645 305.942 20.0928 306.061 20.1243C306.236 20.1716 306.408 20.211 306.649 20.1858C306.86 20.1653 307.084 20.159 307.299 20.1448C307.514 20.1306 307.712 20.1228 307.905 20.1826C308.129 20.2503 308.366 20.3149 308.621 20.3653C308.801 20.4015 309.038 20.3401 309.231 20.3889C309.349 20.4188 309.464 20.4535 309.591 20.4787C309.643 20.4897 309.727 20.4818 309.797 20.4787C309.942 20.4724 310.091 20.4677 310.232 20.4519C310.394 20.4346 310.517 20.4377 310.64 20.474C310.754 20.507 310.869 20.5527 311 20.5621C311.198 20.5763 311.417 20.5133 311.615 20.5858C311.716 20.622 311.843 20.6566 311.975 20.6677C312.107 20.6787 312.26 20.6551 312.401 20.6566C312.462 20.6566 312.537 20.6818 312.572 20.7023C312.594 20.7133 312.563 20.7433 312.533 20.759C312.493 20.7779 312.436 20.8031 312.379 20.8063C311.944 20.8346 311.51 20.8582 311.075 20.885C310.816 20.9008 310.816 20.9007 310.293 20.8015C310.17 20.7779 310.034 20.7826 309.881 20.7936C309.674 20.8078 309.464 20.8346 309.248 20.8063C308.967 20.6992 308.621 20.6897 308.252 20.7306C308.098 20.748 307.958 20.748 307.843 20.7181C307.602 20.6582 307.347 20.6031 307.132 20.5322C306.965 20.4771 306.886 20.4724 306.816 20.548C306.794 20.5716 306.772 20.5968 306.776 20.6188C306.803 20.6976 306.851 20.7747 306.877 20.8535C306.886 20.8755 306.851 20.9008 306.829 20.9244C306.759 20.9905 306.667 20.9858 306.513 20.9307C306.359 20.8755 306.175 20.8393 305.929 20.8645C305.718 20.8866 305.49 20.8834 305.279 20.9071C304.954 20.9417 304.726 20.8913 304.493 20.8236C304.445 20.8094 304.362 20.8015 304.3 20.8047C303.646 20.8409 302.996 20.8818 302.342 20.9181C302.202 20.9259 302.074 20.9023 301.964 20.8598C301.85 20.8173 301.723 20.7952 301.582 20.8031C301.003 20.8362 300.423 20.8661 299.844 20.9071C299.607 20.9244 299.418 20.9039 299.255 20.8488C299.132 20.8078 299.018 20.7952 298.865 20.8C298.698 20.8047 298.579 20.8204 298.496 20.8661C298.417 20.9102 298.474 20.937 298.649 20.9716C298.838 21.0094 299.014 21.0582 299.194 21.1023C299.339 21.096 299.484 21.0834 299.624 21.085C299.686 21.085 299.743 21.1133 299.804 21.1291C299.98 21.1748 300.142 21.2204 300.393 21.1952C300.603 21.1732 300.827 21.1685 301.042 21.1543C301.341 21.137 301.341 21.137 301.824 21.2362C301.947 21.2614 302.078 21.2598 302.237 21.2456C302.373 21.2346 302.513 21.2567 302.61 21.3039C302.649 21.3228 302.636 21.3543 302.553 21.4583C302.553 21.5354 302.645 21.5008 302.676 21.4504C302.724 21.3779 302.632 21.3543 302.456 21.3937C302.333 21.422 302.272 21.463 302.302 21.496C302.32 21.5134 302.403 21.5354 302.553 21.4583C302.939 21.3638 303.233 21.3527 303.514 21.3275C303.681 21.3134 303.786 21.3196 303.918 21.3606C304.076 21.4094 304.234 21.4614 304.493 21.4362C304.774 21.4079 305.073 21.4047 305.358 21.3811C305.622 21.359 305.758 21.4283 305.925 21.4693C306.127 21.5181 306.351 21.463 306.535 21.4913C306.728 21.5197 306.864 21.589 307.088 21.6016C307.413 21.559 307.619 21.6378 307.865 21.6898C308.059 21.7291 308.287 21.6945 308.493 21.6771C308.726 21.6582 308.919 21.6756 309.082 21.7323C309.266 21.7968 309.472 21.7827 309.683 21.7685C310.175 21.737 310.192 21.7323 310.478 21.8189C310.684 21.8819 310.882 21.8535 311.088 21.8457C311.268 21.8882 311.444 21.9338 311.633 21.9716C311.681 21.9811 311.773 21.9653 311.848 21.9606C312.063 21.948 312.282 21.9354 312.497 21.9228C312.642 21.915 312.796 21.8913 312.928 21.9008C313.059 21.9118 313.169 21.9575 313.288 21.9874C313.406 22.0173 313.529 22.0472 313.643 22.0787C313.819 22.126 313.986 22.1654 314.232 22.1417C314.442 22.1213 314.662 22.115 314.882 22.1008C315.158 22.0835 315.149 22.0882 315.663 22.1827C315.94 22.2347 316.225 22.1717 316.506 22.1654C316.647 22.1622 316.783 22.1795 316.879 22.2252C316.919 22.2441 316.906 22.2756 316.919 22.3024C316.194 22.3449 315.465 22.3811 314.75 22.4331C314.473 22.4536 314.328 22.3969 314.179 22.3496C313.933 22.274 313.608 22.3843 313.376 22.2866C313.235 22.2283 313.033 22.1953 312.792 22.2236C312.651 22.2394 312.502 22.2378 312.357 22.252C311.988 22.2866 311.65 22.2882 311.356 22.1795C311.255 22.1417 311.11 22.1213 311.005 22.085C310.882 22.0457 310.763 22.0236 310.618 22.0315C309.964 22.0693 309.314 22.1071 308.664 22.148C308.607 22.1512 308.55 22.1748 308.502 22.1921C308.379 22.2362 308.419 22.2709 308.616 22.2992C308.682 22.3087 308.735 22.3291 308.796 22.3449C308.915 22.3748 309.024 22.4221 309.156 22.4331C309.288 22.4441 309.442 22.4221 309.587 22.4142C309.731 22.4063 309.885 22.3827 310.017 22.3921C310.149 22.4032 310.258 22.4488 310.381 22.4772C310.438 22.4914 310.509 22.515 310.566 22.5134C310.855 22.504 311.141 22.4866 311.431 22.4725C311.611 22.515 311.764 22.5764 311.979 22.5906C312.116 22.6 312.26 22.5827 312.401 22.5858C312.462 22.5874 312.541 22.611 312.572 22.6315C312.59 22.6441 312.533 22.6756 312.489 22.6914C312.322 22.7512 312.094 22.7402 311.887 22.7591C311.663 22.7795 311.461 22.7733 311.29 22.7118C311.176 22.6709 311.048 22.6488 310.908 22.6567C310.544 22.6772 310.184 22.7008 309.819 22.7181C309.758 22.7213 309.683 22.7071 309.626 22.6961C309.165 22.6 309.165 22.5969 308.84 22.6173C308.361 22.6473 308.362 22.6473 308.041 22.5638C307.98 22.548 307.914 22.5181 307.861 22.5197C307.352 22.5449 306.847 22.5701 306.342 22.6063C306.175 22.6173 306.061 22.6173 305.938 22.5764C305.833 22.5418 305.71 22.5024 305.578 22.4929C305.442 22.4835 305.292 22.5071 305.148 22.515C305.003 22.5229 304.849 22.5433 304.722 22.5307C304.59 22.5181 304.476 22.474 304.362 22.4425C304.243 22.4095 304.116 22.411 303.953 22.4236C303.453 22.4598 303.448 22.4551 302.952 22.3575C302.895 22.3465 302.821 22.3339 302.759 22.337C302.395 22.3559 302.035 22.3795 301.67 22.3984C301.53 22.4063 301.394 22.3858 301.297 22.3402C301.257 22.3213 301.271 22.2898 301.244 22.2283C301.214 22.2142 301.249 22.2394 301.257 22.263C301.323 22.2599 301.402 22.263 301.451 22.2504C301.574 22.2205 301.635 22.1811 301.604 22.148C301.587 22.1307 301.503 22.1087 301.451 22.1087C301.354 22.1087 301.271 22.1433 301.244 22.2283C300.968 22.2803 300.673 22.2913 300.388 22.3165C300.221 22.3323 300.116 22.3244 299.984 22.2835C299.826 22.2331 299.664 22.1842 299.405 22.2094C299.124 22.2378 298.825 22.2425 298.535 22.2646C298.202 22.2898 298.057 22.148 297.776 22.1512C297.486 22.1543 297.196 22.1811 296.906 22.2C296.652 22.2158 296.652 22.2157 296.125 22.1134C295.932 22.0756 295.703 22.1307 295.515 22.0913C295.387 22.0661 295.277 22.0283 295.155 22.0016C295.102 21.9905 295.018 21.9905 294.953 21.9937C294.588 22.0126 294.219 22.0252 293.868 22.0598C293.469 22.1008 293.166 22.0567 292.88 21.9638C292.52 21.9811 292.156 21.9905 291.8 22.0205C291.541 22.0425 291.392 21.9906 291.216 21.948C291.155 21.9339 291.102 21.9102 291.036 21.9039C290.97 21.8976 290.891 21.9102 290.821 21.9149C290.531 21.9323 290.233 21.9402 289.952 21.9685C289.605 22.0047 289.473 21.8756 289.205 21.8598C289.025 21.937 288.929 22.0425 288.573 22.0504C288.283 22.0567 287.993 22.0819 287.704 22.0992C287.559 22.1071 287.414 22.1165 287.269 22.1244C287.036 22.1386 286.927 22.2 286.975 22.2945C287.001 22.3465 287.023 22.3984 287.045 22.4504C287.089 22.5433 286.979 22.6221 286.795 22.6331C286.285 22.663 285.781 22.6945 285.271 22.7213C285.135 22.7291 285.003 22.7024 284.894 22.6599C284.779 22.6173 284.652 22.5984 284.512 22.6063C284.002 22.6362 283.497 22.6677 282.988 22.6945C282.931 22.6977 282.856 22.6819 282.799 22.6693C282.676 22.641 282.558 22.6079 282.439 22.578C282.15 22.5921 281.864 22.6016 281.579 22.6205C281.118 22.6488 281.118 22.6504 280.78 22.5638C280.718 22.548 280.657 22.5181 280.6 22.5197C280.38 22.526 280.165 22.5417 279.945 22.5559C279.3 22.5969 279.3 22.5969 279.111 22.5496C278.94 22.5055 278.786 22.452 278.527 22.4772C278.246 22.5055 277.948 22.515 277.658 22.5307C277.443 22.5417 277.228 22.5544 277.012 22.5575C276.955 22.5591 276.894 22.5291 276.833 22.5134C276.657 22.4646 276.486 22.4252 276.244 22.452C276.104 22.4677 275.954 22.4709 275.809 22.4788C275.432 22.5008 275.432 22.5008 274.813 22.4063C274.751 22.3969 274.677 22.3858 274.615 22.3906C274.106 22.4189 273.601 22.4504 273.092 22.4772C273.03 22.4803 272.956 22.4709 272.894 22.463C272.2 22.3717 272.2 22.3717 271.463 22.4158C271.182 22.4315 271.173 22.4378 270.879 22.3543C270.747 22.3181 270.637 22.3008 270.484 22.3118C269.904 22.3496 269.32 22.3748 268.745 22.4189C268.486 22.4378 268.337 22.3906 268.161 22.348C268.1 22.3339 268.034 22.3024 267.981 22.304C267.402 22.3339 266.822 22.3701 266.242 22.4C266.19 22.4032 266.124 22.3717 266.062 22.3575C265.944 22.3291 265.83 22.2866 265.698 22.2772C265.562 22.2677 265.412 22.2913 265.263 22.2992C264.899 22.3197 264.899 22.3181 264.477 22.2252C264.42 22.2126 264.346 22.1953 264.289 22.1984C263.709 22.2299 263.125 22.2567 262.55 22.3024C262.221 22.3276 261.997 22.2819 261.764 22.2157C261.716 22.2016 261.632 22.1953 261.571 22.1984C260.917 22.2346 260.267 22.2756 259.613 22.3118C259.476 22.3197 259.345 22.2929 259.235 22.252C259.059 22.1874 258.853 22.1953 258.633 22.2094C258.129 22.2425 258.124 22.241 257.826 22.1654C257.764 22.1496 257.711 22.1291 257.646 22.1213C257.584 22.1134 257.505 22.1181 257.439 22.1213C257.149 22.137 256.86 22.1543 256.57 22.1716C256.28 22.189 255.986 22.1984 255.7 22.2252C255.349 22.2583 255.182 22.1559 254.936 22.1087C254.576 22.1291 254.208 22.1417 253.852 22.1748C253.58 22.2 253.453 22.1307 253.273 22.0945C253.211 22.0819 253.145 22.0551 253.088 22.0583C252.434 22.0929 251.78 22.1307 251.13 22.1732C250.972 22.1827 250.866 22.1701 250.735 22.1323C250.441 22.0472 250.427 22.0504 249.936 22.0819C249.72 22.0961 249.514 22.1087 249.33 22.0441C249.167 21.9858 248.97 21.9716 248.737 21.9905C248.452 22.0142 248.157 22.0268 247.868 22.0425C247.578 22.0598 247.288 22.0835 246.998 22.0913C246.766 22.0992 246.625 22.0252 246.441 21.9874C246.384 21.9764 246.305 21.9748 246.239 21.9779C245.949 21.9921 245.65 22.0031 245.369 22.0299C245.027 22.063 244.838 21.9764 244.597 21.926C244.544 21.915 244.456 21.9213 244.39 21.926C243.881 21.9543 243.376 21.9858 242.867 22.0157C242.687 21.9732 242.502 21.9323 242.322 21.8898C242.032 21.9055 241.743 21.9228 241.453 21.9386C241.233 21.9512 241.009 21.9559 240.803 21.9795C240.535 22.011 240.404 21.937 240.224 21.9008C240.162 21.8882 240.096 21.8614 240.039 21.8646C239.675 21.8819 239.31 21.9008 238.95 21.9276C238.608 21.9543 238.472 21.8126 238.191 21.8142C237.901 21.8157 237.602 21.8362 237.321 21.8646C236.996 21.8976 236.768 21.8472 236.535 21.7795C236.487 21.7653 236.404 21.7575 236.342 21.7606C235.978 21.7795 235.618 21.8031 235.253 21.822C235.192 21.8252 235.117 21.8173 235.056 21.8079C234.362 21.715 234.362 21.7134 234.059 21.7323C233.844 21.7449 233.625 21.7606 233.405 21.7685C233.344 21.7716 233.269 21.7575 233.212 21.7449C232.755 21.6488 232.755 21.6472 232.426 21.6661C232.136 21.6834 231.846 21.7008 231.556 21.7181C231.376 21.6756 231.192 21.6346 231.012 21.5921C230.652 21.6126 230.283 21.6283 229.928 21.6567C229.761 21.6693 229.651 21.6645 229.524 21.6252C229.366 21.5779 229.208 21.5228 228.944 21.5496C228.663 21.5779 228.365 21.5811 228.079 21.6047C227.737 21.6331 227.596 21.4897 227.32 21.4913C227.03 21.4929 226.731 21.5134 226.45 21.5417C226.125 21.5748 225.897 21.5244 225.664 21.4567C225.616 21.4425 225.533 21.4346 225.471 21.4378C224.672 21.4834 223.877 21.5291 223.078 21.5779C222.587 21.6078 222.587 21.6094 221.651 21.5228C221.585 21.5165 221.515 21.5102 221.449 21.5134C221.159 21.5275 220.861 21.5386 220.58 21.5653C220.237 21.5984 220.049 21.5134 219.807 21.4614C219.755 21.4504 219.671 21.4567 219.601 21.4598C219.381 21.4708 219.166 21.485 218.947 21.4976C218.657 21.5149 218.367 21.5323 218.077 21.5496C217.897 21.5086 217.713 21.4661 217.533 21.4252C217.173 21.4456 216.804 21.4567 216.448 21.4897C216.176 21.5149 216.049 21.4488 215.869 21.411C215.807 21.3984 215.742 21.3716 215.684 21.3732C215.03 21.4079 214.376 21.4441 213.726 21.4882C213.458 21.5071 213.335 21.4362 213.155 21.4C213.094 21.3889 213.024 21.3685 212.967 21.3716C212.532 21.3937 212.097 21.4204 211.663 21.4472C211.417 21.463 211.417 21.463 210.881 21.3653C210.82 21.3543 210.749 21.3433 210.688 21.3464C209.309 21.4252 207.935 21.5086 206.556 21.5874C206.416 21.5953 206.289 21.5716 206.179 21.5291C206.065 21.4866 205.937 21.4645 205.797 21.4724C205.217 21.5055 204.633 21.5354 204.058 21.5764C203.821 21.5937 203.632 21.5732 203.47 21.5181C203.347 21.4771 203.233 21.4614 203.079 21.4708C202.789 21.4897 202.499 21.5055 202.21 21.5228C201.92 21.5401 201.63 21.5575 201.34 21.5748C201.051 21.5921 200.756 21.6016 200.471 21.6283C200.12 21.6614 199.949 21.5638 199.707 21.5149C199.272 21.5386 198.838 21.5622 198.407 21.5874C197.828 21.6205 197.248 21.6567 196.669 21.6882C196.616 21.6913 196.55 21.663 196.489 21.6488C196.309 21.6094 196.177 21.5543 195.909 21.5716C194.609 21.6551 193.301 21.726 191.997 21.8079C191.725 21.8252 191.606 21.7575 191.422 21.7212C191.36 21.7102 191.29 21.6882 191.233 21.6913C190.509 21.7307 189.784 21.7748 189.06 21.8173C188.766 21.8346 188.766 21.8346 188.274 21.737C188.217 21.726 188.142 21.7118 188.081 21.7149C187.137 21.7685 186.197 21.8252 185.253 21.8803C185.113 21.8882 184.985 21.8661 184.871 21.8236C184.761 21.7811 184.63 21.7575 184.494 21.7653C183.624 21.8157 182.75 21.8646 181.886 21.9197C181.653 21.9354 181.46 21.9213 181.293 21.8646C181.174 21.8236 181.056 21.8063 180.906 21.8157C179.602 21.8929 178.298 21.9669 176.994 22.0488C176.744 22.0646 176.568 22.0346 176.41 21.9827C176.283 21.9417 176.173 21.9338 176.015 21.9401C175.848 21.948 175.747 21.9653 175.655 22.0126C175.537 22.074 175.462 22.1512 175.181 22.1559C174.891 22.1606 174.597 22.1795 174.312 22.2063C174.039 22.2331 173.912 22.1622 173.741 22.1197C173.614 22.0898 173.495 22.085 173.333 22.0992C173.183 22.1118 173.091 22.1386 173.003 22.189C172.81 22.2961 172.793 22.2961 172.555 22.2283C172.428 22.1921 172.314 22.1638 172.173 22.1701C171.594 22.2016 171.014 22.2362 170.435 22.2724C170.101 22.2929 170.097 22.2961 169.846 22.2173C169.724 22.178 169.605 22.159 169.46 22.1685C167.866 22.263 166.273 22.3543 164.679 22.4536C164.433 22.4693 164.266 22.4362 164.09 22.389C164.033 22.3732 163.976 22.3512 163.91 22.3449C163.845 22.3386 163.77 22.3449 163.7 22.348C162.541 22.4158 161.377 22.4803 160.222 22.5559C159.959 22.5732 159.818 22.5229 159.638 22.4819C159.577 22.4677 159.524 22.4457 159.458 22.4394C159.392 22.4347 159.313 22.4457 159.243 22.4504C158.084 22.5181 156.921 22.5827 155.766 22.6583C155.489 22.6756 155.371 22.6095 155.191 22.5748C155.129 22.5622 155.063 22.5386 155.006 22.5417C154.642 22.5591 154.282 22.5827 153.917 22.6032C153.048 22.6551 152.179 22.704 151.309 22.7575C150.976 22.778 150.831 22.6378 150.55 22.6441C150.185 22.652 149.825 22.6835 149.461 22.7055C149.171 22.7229 148.881 22.7386 148.591 22.7575C148.306 22.7748 148.306 22.7748 147.595 22.6835C147.533 22.6756 147.459 22.6646 147.397 22.6677C146.383 22.726 145.364 22.7843 144.355 22.8473C144.122 22.8614 143.929 22.8536 143.762 22.7953C143.643 22.7544 143.52 22.7339 143.375 22.7433C141.852 22.8331 140.333 22.9229 138.809 23.0111C138.752 23.0142 138.677 22.9985 138.62 22.9859C138.497 22.9575 138.379 22.9244 138.26 22.8945C138.173 22.9307 138.058 22.9638 138.001 23.0048C137.922 23.0599 137.817 23.0756 137.65 23.0851C137.483 23.0945 137.378 23.0914 137.246 23.0504C137.088 23 136.926 22.9607 136.667 22.9764C135.073 23.0756 133.479 23.1654 131.885 23.263C131.622 23.2788 131.499 23.2095 131.314 23.1733C131.253 23.1622 131.183 23.1449 131.126 23.1481C130.471 23.1843 129.822 23.2237 129.167 23.2615C127.354 23.3685 125.541 23.4709 123.732 23.5843C123.403 23.6048 123.179 23.5654 122.946 23.4977C122.898 23.4835 122.814 23.4756 122.753 23.4788C120.215 23.6268 117.677 23.7764 115.144 23.926C115.008 23.9339 114.876 23.9087 114.766 23.8678C114.652 23.8253 114.525 23.8048 114.384 23.8127C113.225 23.8804 112.066 23.9481 110.907 24.0174C110.617 24.0347 110.613 24.0363 110.314 23.9607C110.253 23.9449 110.187 23.915 110.139 23.9182C110.038 23.9261 109.941 23.9654 109.871 24.019C109.8 24.0757 109.691 24.0914 109.528 24.1024C109.361 24.1135 109.252 24.1087 109.124 24.0709C108.962 24.0237 108.813 23.978 108.549 23.9938C105.217 24.1954 101.884 24.389 98.5517 24.5891C98.2838 24.6048 98.1609 24.5387 97.9765 24.5024C97.915 24.4914 97.8536 24.4757 97.7877 24.4725C97.7175 24.4694 97.6428 24.4788 97.5726 24.4836C92.137 24.8032 86.7015 25.1245 81.2659 25.4442C80.941 25.4631 80.9454 25.4631 80.5897 25.608C80.5458 25.6253 80.4887 25.6489 80.4272 25.6521C78.7632 25.7529 77.0948 25.8505 75.4264 25.9482C74.7019 25.9907 73.9775 26.0348 73.253 26.0757C72.994 26.0899 72.994 26.0899 72.3749 26.26C72.3222 26.2742 72.2607 26.2931 72.1992 26.2962C69.3014 26.4679 66.4036 26.6395 63.5014 26.808C63.2731 26.8206 63.0887 26.849 62.9833 26.9246C62.9087 26.9781 62.8121 27.0096 62.6672 27.0191C60.6387 27.1388 58.6103 27.26 56.5775 27.3766C56.336 27.3907 56.191 27.4348 56.0725 27.501C56.033 27.523 55.9978 27.5482 55.9408 27.564C55.8881 27.5781 55.8091 27.5829 55.7432 27.5876C54.0045 27.69 52.2659 27.7955 50.5228 27.8931C50.2638 27.9073 50.1583 27.9656 50.031 28.027C49.9871 28.0475 49.9563 28.0758 49.8993 28.09C49.8422 28.1026 49.7588 28.1026 49.6885 28.1057C48.2396 28.1908 46.7908 28.2774 45.3419 28.3624C45.0609 28.3546 44.9994 28.4459 44.8633 28.501C44.815 28.5199 44.7799 28.5451 44.7228 28.5577C44.6614 28.5703 44.5822 28.5687 44.5076 28.5719C43.3485 28.6396 42.1894 28.712 41.0259 28.775C40.758 28.7892 40.7053 28.8695 40.5604 28.9246C40.5121 28.942 40.4639 28.9688 40.4068 28.9735C39.6824 29.0191 38.9579 29.0617 38.2335 29.1026C37.992 29.1168 37.992 29.1152 37.5661 29.2711C37.5178 29.2884 37.4607 29.3073 37.3992 29.3121C36.3147 29.3782 35.2259 29.4412 34.137 29.5058C33.9965 29.5137 33.8999 29.5514 33.8297 29.605C33.7594 29.6585 33.6585 29.6932 33.518 29.7011C32.6486 29.753 31.7792 29.8066 30.9099 29.8538C30.6684 29.8664 30.5104 29.9058 30.405 29.9767C30.326 30.0302 30.2294 30.057 30.0757 30.0664C29.2064 30.1168 28.337 30.1719 27.4633 30.216C27.2086 30.2286 27.0769 30.2822 26.9715 30.3483C26.8881 30.4019 26.7915 30.4208 26.629 30.4302C25.0352 30.5216 23.4371 30.6129 21.8477 30.7137C21.5799 30.731 21.4437 30.6759 21.2681 30.6365C21.0178 30.5814 20.7852 30.5215 20.7852 30.3987C20.7852 30.3798 20.7105 30.3578 20.6579 30.342C20.2671 30.2239 20.2671 30.2239 20.2056 30.0979C20.1705 30.0208 20.131 29.942 20.1002 29.8633C20.0432 29.7341 19.9026 29.7011 19.4987 29.7247C19.3538 29.7326 19.2089 29.7436 19.064 29.7499C18.8489 29.7609 18.6864 29.7089 18.6469 29.6144C18.625 29.5625 18.5987 29.5105 18.5767 29.4585C18.7962 29.4459 18.7918 29.4444 19.1782 29.2538C19.3406 29.1735 19.3407 29.1735 19.029 29.0932C18.9104 29.0632 18.7962 29.0302 18.6689 29.0018C18.6118 28.9892 18.5372 28.9813 18.4757 28.9845C18.1113 29.0034 17.7513 29.0254 17.3913 29.0475C16.8117 29.0821 16.8116 29.0821 16.2233 28.9215C16.175 28.9089 16.1004 28.8853 16.1091 28.8727C16.1574 28.8144 16.276 28.7892 16.4252 28.7829C16.6448 28.7735 16.8599 28.7577 17.075 28.7451C17.2199 28.7372 17.3648 28.7278 17.5097 28.7199C17.6458 28.6601 17.7864 28.6018 17.9137 28.5404C18.1157 28.4459 18.1156 28.4427 17.839 28.3766C17.6634 28.3325 17.4746 28.2931 17.2946 28.2522C17.0794 28.2648 16.8599 28.2789 16.6448 28.29C16.3726 28.3041 16.2628 28.2742 16.1925 28.1719C16.1311 28.0821 16.2057 28.0049 16.4165 27.986C16.6316 27.9671 16.8336 27.9545 16.9434 27.8742C17.0488 27.7971 17.2332 27.7671 17.4615 27.7608C17.6064 27.7561 17.7513 27.7451 17.8961 27.7356C18.0849 27.723 18.186 27.6427 18.1464 27.5529C18.1245 27.4947 18.0806 27.4459 17.9093 27.4333C17.1497 27.3781 17.1409 27.3797 16.7633 27.2726C16.7282 27.2632 16.7019 27.2348 16.7151 27.2207C16.737 27.197 16.7854 27.1624 16.838 27.1577C17.343 27.123 17.8479 27.0915 18.3528 27.0679C18.5196 27.06 18.6426 27.049 18.6997 26.9907C18.7787 26.9104 18.7436 26.8364 18.5899 26.7813C18.5416 26.7639 18.4625 26.7419 18.4098 26.7435C17.8302 26.7718 17.2551 26.808 16.6755 26.8364C16.6229 26.8395 16.5263 26.8128 16.5044 26.7923C16.4604 26.7545 16.5263 26.7041 16.6799 26.6868C16.8819 26.6632 17.0883 26.6616 17.2244 26.5828C17.4132 26.471 17.6458 26.3687 17.8566 26.2616C17.8917 26.2427 17.9489 26.2064 17.9357 26.2033C17.8259 26.1686 17.6986 26.1419 17.5844 26.1088C17.3912 26.0537 17.3912 25.9765 17.4351 25.9025C17.4702 25.8427 17.6019 25.819 17.7644 25.819C17.8347 25.819 17.9225 25.819 17.9795 25.8049C18.1288 25.7702 18.1771 25.7261 18.1025 25.693C18.0586 25.6741 17.9796 25.6474 17.9269 25.6505C16.9873 25.7025 16.0433 25.7529 15.1081 25.8175C14.8315 25.8363 14.7042 25.7765 14.5374 25.734C14.41 25.7009 14.2914 25.6883 14.1334 25.7119C13.9841 25.734 13.8392 25.7214 13.747 25.6694C13.6724 25.6269 13.8041 25.5907 14.1597 25.5497C14.2256 25.5419 14.3002 25.5371 14.3485 25.5214C14.8578 25.3513 14.8578 25.3497 15.209 25.3277C15.5515 25.3072 15.5516 25.3056 15.7316 25.2143C15.815 25.1718 15.9072 25.1292 15.9862 25.0851C16.0169 25.0678 16.0697 25.0363 16.0521 25.0269C15.9555 24.978 15.8237 24.967 15.6701 24.9781C15.3276 25.0048 14.9237 24.9828 14.7437 25.1324C14.6735 25.1891 14.5637 25.2048 14.4056 25.2143C12.8162 25.3056 11.2268 25.4033 9.63298 25.4915C9.37393 25.5056 9.25545 25.5639 9.15447 25.6285C9.06666 25.682 8.97004 25.6978 8.8032 25.7072C8.63636 25.7167 8.50457 25.7214 8.40798 25.6694C8.3509 25.6379 8.39921 25.5938 8.53093 25.5497C8.71973 25.4867 8.68458 25.408 8.62312 25.334C8.57921 25.2852 8.4431 25.2505 8.29821 25.2537C8.08307 25.26 7.87677 25.2773 7.69676 25.2143C7.59138 25.1781 7.45964 25.1529 7.34109 25.1214C7.11278 25.0568 6.88446 24.9907 6.56394 25.0332C6.34441 25.0174 6.19074 24.9607 6.01512 24.9166C5.72095 24.8442 5.6946 24.8332 5.90535 24.756C6.14245 24.6694 5.95801 24.556 6.08972 24.4709C6.23022 24.3796 6.42347 24.2993 6.59471 24.2143C6.63861 24.1922 6.67815 24.1717 6.72205 24.1497C6.62107 24.1182 6.52888 24.0788 6.41034 24.0568C6.25667 24.0284 6.17763 23.9938 6.18641 23.8961C6.15568 23.882 6.16876 23.9182 6.20388 23.9276C6.2434 23.9371 6.34007 23.9292 6.38836 23.9182C6.5113 23.8883 6.5727 23.8489 6.54197 23.8158C6.52441 23.7985 6.44105 23.7764 6.38836 23.7764C6.29177 23.7764 6.20836 23.8111 6.18202 23.8961C5.69027 23.9607 5.18088 23.9922 4.67156 24.0174C4.61888 24.0205 4.55306 23.989 4.49159 23.9733C4.28962 23.9198 4.28959 23.9213 3.69686 23.9056C3.63539 23.904 3.55201 23.882 3.52128 23.8599C3.39395 23.7638 3.39838 23.6583 3.33691 23.556C3.45106 23.4898 3.56513 23.4252 3.68368 23.3607C3.92077 23.23 4.22818 23.115 4.41259 22.9717C4.37307 22.8945 4.32038 22.8174 4.51356 22.7544C5.06239 22.6756 5.05803 22.6756 5.20731 22.6C5.6332 22.3858 6.05468 22.1701 6.49813 21.959C6.61667 21.9039 6.61669 21.874 6.40594 21.8504C6.34008 21.8441 6.26974 21.8425 6.19949 21.8457C5.97996 21.8567 5.76043 21.885 5.54529 21.8787C5.33015 21.874 5.17209 21.8047 4.99647 21.7622C4.81645 21.7181 4.63644 21.6724 4.45643 21.6268C4.25007 21.6315 4.04375 21.6756 3.83739 21.6047C3.67933 21.5496 3.48176 21.5102 3.30175 21.4645C3.43786 21.3449 3.69255 21.2535 3.89013 21.148C4.07015 21.0519 4.07444 21.0535 4.5574 20.9795C4.78572 20.9448 4.86475 20.7669 4.67156 20.7149C4.43886 20.6519 4.19304 20.5936 3.95595 20.5338C3.74959 20.5385 3.53888 20.5811 3.3413 20.5102C3.18763 20.4566 3.01197 20.4204 2.75732 20.4409C2.32704 20.4755 1.88799 20.4929 1.45332 20.5212C1.30404 20.5306 1.14154 20.5244 1.07568 20.4708C1.03177 20.433 1.15911 20.381 1.304 20.37C1.52353 20.3543 1.72109 20.3354 1.83085 20.2566C1.93623 20.1779 2.12939 20.1543 2.3577 20.1432C2.41917 20.1401 2.48947 20.1212 2.52021 20.1023C2.67827 20.0109 2.85391 19.9322 3.19198 19.9354C3.33248 19.9039 3.40708 19.8645 3.36317 19.8267C3.33683 19.8062 3.24467 19.7795 3.19198 19.7826C2.82756 19.7983 2.46316 19.8141 2.10752 19.8424C1.94067 19.855 1.81328 19.8582 1.7079 19.8109C1.63326 19.7794 1.67277 19.7369 1.81327 19.6912C1.93621 19.6519 1.97137 19.6062 1.96259 19.5527C1.94064 19.4282 1.80889 19.392 1.3874 19.3999C1.08444 19.4062 1.0098 19.3857 0.943939 19.2786C0.926376 19.2534 0.882547 19.2188 0.913282 19.2015C1.10208 19.0944 1.22502 18.9621 1.58066 18.9117C1.72116 18.8928 1.87038 18.8928 1.9582 18.8519C2.04601 18.8109 2.12508 18.7637 2.21728 18.7243C2.33144 18.677 2.41039 18.633 2.3577 18.603C2.26989 18.5495 2.12944 18.5448 1.96699 18.5637C1.82649 18.5794 1.67721 18.581 1.53232 18.5904C1.27327 18.6077 1.06257 18.5668 1.03184 18.4975C0.948415 18.3148 0.860577 18.1337 0.785937 17.951C0.777156 17.929 0.799049 17.9006 0.834174 17.8817C0.957111 17.8156 1.08888 17.7526 1.21621 17.688C1.36549 17.614 1.60262 17.6282 1.80459 17.614C2.08998 17.5935 2.08988 17.5951 2.47186 17.4439C2.62114 17.3841 2.8802 17.4077 3.03387 17.3542C3.08217 17.3368 3.15681 17.3085 3.14364 17.2927C3.12608 17.2723 3.03831 17.2565 2.97245 17.2471C2.91098 17.2376 2.83636 17.2329 2.7705 17.2376C1.97141 17.2833 1.17673 17.3321 0.37764 17.3762C0.241531 17.3841 0.0922457 17.3494 0.043949 17.3006C-0.00434774 17.2549 0.00878122 17.1998 0 17.1478C0.127328 17.0833 0.272162 17.0234 0.381928 16.9541C0.465349 16.9006 0.56196 16.877 0.728803 16.8738C0.948334 16.8691 1.1635 16.8502 1.40937 16.836C1.86599 16.6061 2.31381 16.3652 2.80555 16.1352C3.00313 16.0423 2.95491 15.9478 2.99443 15.8486C3.03394 15.7572 3.3281 15.7714 3.52567 15.7447C3.68374 15.7226 3.73636 15.6722 3.67489 15.6376C3.63976 15.6171 3.56077 15.5935 3.49931 15.5935C3.35442 15.5935 3.20953 15.6076 3.06464 15.6155C2.91975 15.6234 2.75291 15.6187 2.63437 15.6454C2.52021 15.6706 2.44553 15.7242 2.37089 15.7698C2.28747 15.8202 2.17778 15.8376 2.01093 15.8407C1.79579 15.8439 1.58067 15.858 1.36553 15.8691C1.12843 15.8076 0.882509 15.7478 0.654197 15.6832C0.610291 15.6706 0.601462 15.6344 0.605853 15.6108C0.614634 15.5494 0.548792 15.5116 0.403902 15.4817C0.280965 15.4565 0.179972 15.4202 0.0658163 15.3887C0.153629 15.3462 0.250256 15.3053 0.320506 15.2596C0.474178 15.1635 0.667386 15.0942 1.00107 15.0974C1.13279 15.036 1.23814 14.9604 1.40937 14.9179C1.57182 14.8769 1.84844 14.9178 1.97138 14.8249C2.03285 14.7793 2.1251 14.7273 2.24365 14.7084C2.43245 14.6785 2.67832 14.6942 2.78808 14.606C2.85394 14.5556 2.9505 14.51 3.07782 14.4974C3.22271 14.4832 3.37196 14.4801 3.47733 14.4501C3.53441 14.4344 3.59589 14.4092 3.59589 14.3871C3.59589 14.373 3.50814 14.3509 3.44667 14.3415C3.3896 14.3304 3.31487 14.3226 3.24901 14.3257C3.02948 14.3352 2.81434 14.3525 2.59481 14.3619C2.53334 14.3651 2.46312 14.3541 2.39726 14.3446C2.20407 14.3194 2.21722 14.2879 2.37089 14.2312C2.52456 14.1761 2.63438 14.1052 2.76171 14.0407C2.90221 14.0296 3.07781 14.0344 3.1744 14.0044C3.33686 13.9556 3.45098 13.8847 3.5827 13.8233C3.72759 13.8139 3.87686 13.8107 4.01297 13.7934C4.07005 13.7871 4.09642 13.7525 4.14471 13.732C4.23252 13.6926 4.30723 13.6359 4.42577 13.617C4.61896 13.5887 4.85605 13.5997 4.9702 13.5131C5.03606 13.4627 5.13701 13.4091 5.25995 13.406C5.60241 13.3997 5.74731 13.3131 5.92293 13.2312C6.05465 13.1698 6.33566 13.2013 6.48055 13.1398C6.57714 13.1005 6.64743 13.0516 6.74403 13.0138C6.78354 12.9981 6.86694 12.9902 6.93279 12.9855C7.29282 12.9619 7.65723 12.9446 8.01726 12.9194C8.07434 12.9146 8.12707 12.891 8.17098 12.8721C8.26318 12.8312 8.32019 12.7745 8.43435 12.7477C8.54851 12.7209 8.71094 12.7209 8.85144 12.7131C9.30367 12.6894 9.33883 12.6957 9.54519 12.5619C9.71203 12.4532 10.1204 12.5304 10.2565 12.4107C10.3355 12.3414 10.4804 12.2847 10.7394 12.2768C11.1038 12.2658 11.4639 12.2359 11.8283 12.2154C12.1532 12.1965 12.1488 12.1965 12.5001 12.05C12.6581 11.9839 12.8909 11.9933 13.0972 11.9807C13.3168 11.9681 13.5187 11.9493 13.6241 11.8705C13.7295 11.7933 13.9226 11.7681 14.1465 11.7571C14.3529 11.7461 14.5857 11.754 14.7481 11.691C15.1433 11.5398 15.1389 11.5382 15.4155 11.5225C15.8502 11.4973 16.2848 11.4721 16.7195 11.4453C17.0093 11.428 17.3122 11.4248 17.5844 11.3902C17.782 11.365 17.8698 11.2768 17.9971 11.2154C18.3571 11.1917 18.7172 11.1681 19.0772 11.1461C19.5821 11.1146 20.0914 11.0862 20.6007 11.0563C20.8202 10.9965 20.8511 10.8642 21.2199 10.8579C21.4394 10.8547 21.6545 10.8342 21.8741 10.8216C22.2385 10.7996 22.5985 10.7713 22.9629 10.7602C23.2395 10.7524 23.2878 10.6673 23.4326 10.6138C23.4809 10.5949 23.5249 10.5681 23.582 10.5634C24.1527 10.5193 24.741 10.5098 25.2987 10.4453C25.3557 10.439 25.4084 10.4059 25.4216 10.3823C25.4304 10.3697 25.3557 10.346 25.3074 10.335C25.2504 10.3224 25.1758 10.3098 25.1143 10.313C23.301 10.4185 21.4877 10.5256 19.6744 10.6311C19.4197 10.6468 19.4197 10.6453 18.8006 10.8185C18.7479 10.8327 18.6864 10.8484 18.6206 10.8531C18.3308 10.872 18.0366 10.8831 17.7512 10.9067C17.5185 10.9256 17.3254 10.9067 17.1585 10.85C17.04 10.809 16.917 10.7964 16.7677 10.7996C16.6009 10.8043 16.4912 10.8217 16.3946 10.8642C16.2673 10.9224 16.2014 10.998 15.9335 11.0138C14.6998 11.0815 13.466 11.1571 12.2366 11.2295C12.0653 11.2075 11.9819 11.1744 12.0258 11.135C12.0522 11.1114 12.1049 11.0799 12.1576 11.0768C12.6625 11.0437 13.1718 11.0154 13.6767 10.9839C13.747 10.9791 13.8435 10.9823 13.8831 10.9665C14.0762 10.8957 14.1466 10.7807 14.511 10.7728C14.7217 10.7681 14.9369 10.7445 15.1388 10.7224C15.1959 10.7161 15.2486 10.6831 15.2618 10.6594C15.2662 10.6468 15.1959 10.6232 15.1432 10.6122C14.95 10.5665 14.7262 10.6216 14.533 10.5902C14.4671 10.5791 14.3748 10.5634 14.3617 10.5445C14.3529 10.5272 14.4275 10.4988 14.4802 10.4815C14.5285 10.4657 14.5943 10.4516 14.6602 10.4468C15.2398 10.4106 15.8194 10.3728 16.399 10.3445C16.6361 10.3334 16.8029 10.2941 16.9083 10.2216C16.9873 10.1681 17.0839 10.1397 17.2332 10.1319C18.2474 10.0736 19.2616 10.009 20.2802 9.95548C20.5349 9.94288 20.6666 9.89091 20.772 9.8232C20.8554 9.76965 20.952 9.75075 21.1145 9.7413C22.5678 9.65941 24.0123 9.56807 25.4656 9.48933C25.7334 9.47515 25.8125 9.40743 25.9486 9.34916C25.9969 9.32869 26.0275 9.30349 26.089 9.29089C26.1505 9.27829 26.2295 9.27985 26.3041 9.2767C27.4632 9.20899 28.6224 9.13655 29.786 9.07356C30.0582 9.05939 30.1108 8.98063 30.2513 8.92551C30.2996 8.90819 30.3435 8.87985 30.4006 8.87513C31.2699 8.82158 32.1393 8.77119 33.0086 8.71922C33.5882 8.68457 34.1677 8.64992 34.7473 8.61685C35.0326 8.6011 35.0327 8.59951 35.419 8.4499C35.4629 8.43258 35.5245 8.4121 35.5815 8.40738C37.25 8.30659 38.914 8.21054 40.5824 8.11132C40.7229 8.10345 40.8239 8.06721 40.8941 8.01366C40.9644 7.96012 41.0654 7.9239 41.2015 7.91602C42.5056 7.83728 43.8095 7.76012 45.1179 7.6861C45.355 7.6735 45.5218 7.6357 45.6272 7.56483C45.7062 7.51129 45.8028 7.48295 45.9521 7.47508C47.2561 7.39948 48.5602 7.31915 49.8686 7.24671C50.1189 7.23254 50.2418 7.179 50.3647 7.116C50.4086 7.09395 50.4438 7.05773 50.4964 7.05458C51.1463 7.01048 51.7916 6.96481 52.4458 6.93489C52.7181 6.92229 52.8103 6.85614 52.9201 6.79315C53.0079 6.74275 53.1089 6.72543 53.2757 6.71914C53.6402 6.70496 54.0002 6.6782 54.3558 6.65143C54.4085 6.6467 54.4744 6.61205 54.4788 6.59001C54.4875 6.54906 54.3865 6.52071 54.2197 6.50653C52.481 6.6089 50.738 6.71126 48.9993 6.81362C48.7139 6.83095 48.7139 6.83096 48.3275 6.98057C48.2836 6.99789 48.2221 7.01837 48.1606 7.02309C46.4922 7.12231 44.8282 7.21995 43.1597 7.31917C43.0192 7.32704 42.9183 7.36326 42.848 7.41681C42.7778 7.47035 42.6767 7.50657 42.5406 7.51445C40.9468 7.60894 39.3531 7.70501 37.7549 7.79478C37.5178 7.80737 37.351 7.84358 37.2456 7.91602C37.1666 7.96957 37.07 7.99793 36.9207 8.0058C35.3972 8.09399 33.8779 8.1869 32.35 8.27194C32.1963 8.27982 32.0822 8.23415 32.091 8.19162C32.0954 8.16958 32.1612 8.13337 32.2139 8.13022C33.0086 8.07825 33.799 8.0247 34.598 7.98533C34.8659 7.97273 34.9448 7.90343 35.081 7.84516C35.1249 7.82469 35.16 7.79792 35.2171 7.78689C35.2786 7.7743 35.3576 7.77588 35.4322 7.77273C37.3158 7.66091 39.1994 7.54752 41.0874 7.44201C41.3596 7.42626 41.4122 7.34908 41.5527 7.29396C41.601 7.27506 41.645 7.24673 41.702 7.24358C42.2816 7.20578 42.8611 7.1727 43.4407 7.13963C44.4549 7.07978 45.4691 7.01994 46.4878 6.96009C46.7819 6.94277 46.7819 6.94276 47.1595 6.79473C47.2034 6.7774 47.265 6.75537 47.322 6.75222C50.0047 6.59316 52.6874 6.4341 55.3701 6.27661C55.5106 6.26874 55.6115 6.23251 55.6818 6.17897C55.752 6.127 55.853 6.0892 55.9891 6.07975C59.6157 5.86557 63.238 5.65138 66.8647 5.44035C67.1017 5.42618 67.2686 5.3931 67.3739 5.31908C67.4486 5.26554 67.5495 5.2372 67.6988 5.22775C71.6855 4.99309 75.6722 4.75844 79.6632 4.52221C82.3459 4.36473 85.0286 4.20409 87.7113 4.04976C87.9572 4.03558 88.0888 3.98675 88.2118 3.92218C88.2513 3.90014 88.2908 3.86391 88.3435 3.86076C88.9187 3.82139 89.4938 3.78518 90.069 3.74895C90.249 3.79147 90.429 3.83243 90.609 3.87495C90.7451 3.81511 90.8769 3.75368 91.013 3.69384C91.8824 3.64817 92.7385 3.5773 93.6166 3.55525C93.6737 3.55367 93.7351 3.5836 93.7966 3.59935C94.2049 3.69857 94.4377 3.69069 94.6967 3.5584C94.7889 3.51116 94.8679 3.46864 95.0084 3.46076C95.4431 3.43241 95.8822 3.41351 96.3125 3.38044C96.5452 3.36312 96.7383 3.37886 96.9052 3.43556C97.0237 3.4765 97.1467 3.49384 97.2916 3.48439C98.0907 3.43714 98.8854 3.39147 99.6845 3.34107C99.7416 3.33792 99.7942 3.31114 99.8381 3.29224C99.9303 3.25129 100.009 3.20721 100.097 3.16469C100.216 3.19146 100.347 3.21194 100.444 3.24658C100.567 3.28753 100.681 3.28752 100.848 3.2765C104.036 3.08594 107.228 2.90011 110.415 2.70797C110.687 2.69223 110.806 2.75838 110.99 2.79302C111.052 2.80562 111.113 2.82136 111.179 2.82451C111.249 2.82766 111.324 2.81822 111.394 2.8135C113.787 2.67176 116.18 2.53159 118.573 2.38985C118.889 2.37095 118.889 2.37095 119.359 2.46859C119.416 2.48119 119.491 2.49537 119.552 2.49064C120.641 2.42922 121.73 2.36309 122.814 2.30009C122.955 2.29222 123.073 2.31741 123.201 2.35363C123.451 2.4245 123.468 2.42451 123.653 2.32057C123.741 2.27174 123.833 2.24181 123.978 2.22763C124.136 2.21189 124.263 2.21663 124.386 2.24497C124.562 2.28435 124.689 2.35048 124.957 2.33316C126.116 2.25914 127.279 2.19772 128.434 2.12213C128.698 2.10481 128.838 2.15835 129.014 2.19772C129.075 2.2119 129.132 2.23394 129.198 2.23867C129.264 2.24339 129.343 2.23236 129.413 2.22763C130.862 2.14259 132.315 2.05914 133.76 1.9678C134.032 1.95047 134.151 2.01818 134.335 2.05283C134.397 2.06543 134.467 2.08749 134.524 2.08434C135.393 2.03552 136.267 1.98353 137.136 1.93156C137.448 1.91266 137.448 1.91424 137.922 2.0103C137.979 2.0229 138.054 2.0355 138.116 2.03235C139.13 1.97408 140.148 1.91424 141.163 1.85439C141.474 1.8355 141.474 1.8355 142.374 1.91739C142.44 1.92369 142.51 1.93315 142.576 1.93C143.735 1.86228 144.899 1.79613 146.058 1.72369C146.291 1.70951 146.484 1.72211 146.651 1.7788C146.769 1.81975 146.892 1.83708 147.037 1.82763C148.341 1.75047 149.65 1.67645 150.949 1.59456C151.2 1.57881 151.362 1.61344 151.538 1.65911C151.595 1.67486 151.652 1.69691 151.718 1.70321C151.783 1.70951 151.858 1.70321 151.928 1.69848C153.232 1.62132 154.541 1.54888 155.84 1.46541C156.104 1.44808 156.244 1.50163 156.42 1.541C156.481 1.55517 156.547 1.58352 156.6 1.58195C157.109 1.55517 157.619 1.53156 158.123 1.49219C158.396 1.47014 158.514 1.54257 158.699 1.57722C158.76 1.58824 158.83 1.61188 158.887 1.60873C159.976 1.54731 161.065 1.48274 162.15 1.4166C162.303 1.40715 162.418 1.42131 162.54 1.46226C162.703 1.51738 162.892 1.53942 163.129 1.5221C163.634 1.48588 164.143 1.46069 164.652 1.43077C164.951 1.41344 164.951 1.41345 165.864 1.49534C165.93 1.50164 166 1.51108 166.066 1.50793C166.935 1.45754 167.809 1.40872 168.674 1.3536C168.907 1.33785 169.1 1.35202 169.267 1.40872C169.385 1.44966 169.504 1.46699 169.653 1.45755C170.452 1.4103 171.247 1.36305 172.046 1.3158C172.336 1.29848 172.626 1.26855 172.916 1.26855C173.126 1.27013 173.28 1.34572 173.469 1.38351C173.521 1.39454 173.609 1.38195 173.679 1.3788C174.694 1.31896 175.712 1.26383 176.722 1.19611C176.986 1.17879 177.126 1.23233 177.302 1.2717C177.363 1.28588 177.429 1.31423 177.482 1.31265C177.846 1.29533 178.206 1.2717 178.571 1.25123C179.005 1.22603 179.444 1.20713 179.875 1.17249C180.226 1.14414 180.358 1.28115 180.639 1.28587C180.854 1.2906 181.073 1.26383 181.288 1.25123C181.723 1.22603 182.158 1.19769 182.592 1.17564C182.746 1.16777 182.865 1.14256 182.913 1.08586C182.922 1.07484 182.847 1.05122 182.799 1.03705C182.215 0.876416 182.215 0.876408 181.626 0.911055C181.262 0.933103 180.902 0.955155 180.538 0.974053C180.476 0.977203 180.406 0.964605 180.344 0.955155C180.169 0.928383 180.186 0.896889 180.336 0.840194C180.485 0.783499 180.599 0.714211 180.726 0.649642C180.906 0.690588 181.082 0.73152 181.262 0.772466C181.407 0.764592 181.552 0.755157 181.697 0.747283C182.421 0.706336 183.146 0.663812 183.87 0.626015C183.923 0.622866 183.989 0.654367 184.05 0.670116C184.226 0.715787 184.384 0.755148 184.638 0.737824C185.288 0.692153 185.942 0.659081 186.592 0.61971C186.878 0.602386 186.878 0.602388 187.378 0.700029C187.435 0.711053 187.51 0.723653 187.571 0.720503C188.226 0.684281 188.875 0.644914 189.53 0.607118C189.67 0.599244 189.806 0.619716 189.907 0.665387C189.947 0.684285 189.938 0.715776 190.105 0.974053C190.623 1.18351 190.978 1.16147 191.339 1.14257C191.492 1.1347 191.628 1.12682 191.729 1.09532C191.782 1.078 191.848 1.0528 191.848 1.03232C191.848 1.01657 191.751 0.991371 191.69 0.988221C191.255 0.956724 190.842 1.02288 190.416 1.03705C190.219 1.04335 190.048 0.98823 190.013 0.898463C190.004 0.873265 189.991 0.846494 189.977 0.821296C189.964 0.796099 189.956 0.769328 189.942 0.74413C189.771 0.736255 189.67 0.764598 189.595 0.818144C189.534 0.86224 189.446 0.912635 189.328 0.936258C189.209 0.961456 189.047 0.95674 188.902 0.964614C188.761 0.972488 188.608 0.992959 188.476 0.981935C188.344 0.969336 188.239 0.923658 188.116 0.89531C188.059 0.881136 187.988 0.860671 187.931 0.863821C187.426 0.890593 186.926 0.917356 186.425 0.952003C186.162 0.970901 186.03 0.904767 185.863 0.863821C185.732 0.832323 185.6 0.840188 185.578 0.912631C185.521 1.08587 185.723 1.15831 186.171 1.12523C186.54 1.09689 186.873 1.09218 187.163 1.19927C187.203 1.21344 187.295 1.21974 187.352 1.21659C187.712 1.19769 188.067 1.17406 188.427 1.15517C188.493 1.15202 188.564 1.15831 188.625 1.1646C189.521 1.24965 189.521 1.25123 189.824 1.23233C189.969 1.22288 190.109 1.21501 190.096 0.975629C190.373 0.718927 190.812 0.701607 191.238 0.66381C191.514 0.640188 191.633 0.709484 191.813 0.745706C191.874 0.758305 191.94 0.783498 191.997 0.780348C192.941 0.728378 193.881 0.67325 194.82 0.614981C194.978 0.605531 195.092 0.614982 195.215 0.655928C195.373 0.707899 195.549 0.740978 195.799 0.722079C196.3 0.684283 196.809 0.660665 197.318 0.629168C197.578 0.61342 197.578 0.613403 198.1 0.711045C198.157 0.722069 198.232 0.734668 198.293 0.731519C198.802 0.704746 199.308 0.671684 199.812 0.643336C199.953 0.635462 200.08 0.657508 200.19 0.700029C200.3 0.74255 200.431 0.764596 200.568 0.756722C201.077 0.728374 201.582 0.696887 202.087 0.66854C202.148 0.66539 202.223 0.676413 202.28 0.687437C202.816 0.785078 202.816 0.785062 203.061 0.769314C203.421 0.745691 203.79 0.734679 204.146 0.703182C204.493 0.671685 204.673 0.763019 204.91 0.813414C205.56 0.777193 206.214 0.747278 206.859 0.703182C207.123 0.684284 207.263 0.736249 207.439 0.777196C207.5 0.791369 207.562 0.821295 207.619 0.81972C207.838 0.81342 208.054 0.7961 208.269 0.783501C208.484 0.770902 208.703 0.758305 208.919 0.745706C209.164 0.791377 209.327 0.898466 209.678 0.862244C209.889 0.840196 210.113 0.835472 210.328 0.822873C210.543 0.810274 210.763 0.797676 210.978 0.785078C211.123 0.777203 211.272 0.772472 211.412 0.758298C211.671 0.734675 211.799 0.811853 211.983 0.846499C212.045 0.857523 212.115 0.876409 212.172 0.87326C212.607 0.851212 213.046 0.832315 213.472 0.796093C213.801 0.767746 214.025 0.814998 214.257 0.881142C214.306 0.895315 214.389 0.903189 214.451 0.900039C214.96 0.873267 215.465 0.840185 215.97 0.811838C216.106 0.803964 216.238 0.829161 216.347 0.870107C216.462 0.912628 216.589 0.933117 216.729 0.925242C217.234 0.896895 217.744 0.865389 218.249 0.837041C218.31 0.833891 218.385 0.846492 218.442 0.859091C218.934 0.956733 218.934 0.958309 219.223 0.939411C219.294 0.934686 219.368 0.931524 219.438 0.9268C219.798 0.904752 220.172 0.896888 220.523 0.859091C220.927 0.81657 221.221 0.870118 221.506 0.959885C221.866 0.940986 222.235 0.92996 222.586 0.898463C222.85 0.87484 222.99 0.934682 223.166 0.974053C223.228 0.988227 223.293 1.01657 223.346 1.01342C223.855 0.986652 224.365 0.963037 224.865 0.923666C225.137 0.901618 225.256 0.972474 225.44 1.0087C225.502 1.02129 225.568 1.04335 225.625 1.0402C225.915 1.02761 226.204 1.0087 226.494 0.991374C226.832 0.970901 226.832 0.972474 227.28 1.06854C227.491 1.11421 227.702 1.07799 227.908 1.06696C228.127 1.05437 228.334 1.04492 228.509 1.10949C228.619 1.15043 228.751 1.17563 228.887 1.16933C229.177 1.15516 229.471 1.14099 229.756 1.11737C229.985 1.09847 230.182 1.11106 230.349 1.16933C230.468 1.21028 230.591 1.23077 230.735 1.22132C231.385 1.18352 232.039 1.14413 232.689 1.10791C232.746 1.10476 232.825 1.11894 232.878 1.13312C233.001 1.16146 233.12 1.19295 233.238 1.22445C233.523 1.21028 233.818 1.20399 234.099 1.18195C234.397 1.1599 234.669 1.15202 234.902 1.23864C234.95 1.25754 235.021 1.28429 235.078 1.28272C235.297 1.27642 235.512 1.26068 235.728 1.24808C235.943 1.23548 236.162 1.22288 236.377 1.21028C236.628 1.24965 236.786 1.36304 237.137 1.32682C237.348 1.30477 237.572 1.30005 237.787 1.28745C238.002 1.27485 238.221 1.26068 238.437 1.24965C238.507 1.2465 238.586 1.23862 238.647 1.24492C238.713 1.25122 238.77 1.27328 238.827 1.28902C239.003 1.3347 239.165 1.38037 239.416 1.3536C239.626 1.33155 239.85 1.32683 240.066 1.31265C240.36 1.29533 240.36 1.29533 240.847 1.39455C241.045 1.43549 241.269 1.38195 241.457 1.4166C241.585 1.44022 241.694 1.47958 241.817 1.50636C241.87 1.51738 241.953 1.5221 242.015 1.51895C242.305 1.50477 242.599 1.49061 242.884 1.46698C243.117 1.44809 243.31 1.46698 243.473 1.52368C243.591 1.56462 243.71 1.58196 243.859 1.57251C244.583 1.52841 245.308 1.4906 246.028 1.44178C246.274 1.42446 246.471 1.45124 246.607 1.50793C246.84 1.60557 247.17 1.49061 247.411 1.56935C247.56 1.61817 247.71 1.67487 247.982 1.65125C248.482 1.6103 248.992 1.58824 249.497 1.5599C249.677 1.60242 249.857 1.64495 250.041 1.68747C250.331 1.67015 250.621 1.65281 250.91 1.63706C251.125 1.62446 251.345 1.61029 251.56 1.59927C251.63 1.59612 251.705 1.58982 251.771 1.59769C251.837 1.60557 251.889 1.62604 251.951 1.64179C252.254 1.71896 252.254 1.72054 252.754 1.68905C252.969 1.67487 253.176 1.66542 253.356 1.72842C253.523 1.78669 253.72 1.7977 253.949 1.78038C254.379 1.74888 254.814 1.72526 255.253 1.70321C255.389 1.69534 255.516 1.72211 255.63 1.76306C255.801 1.82763 256.012 1.82133 256.227 1.80401C256.513 1.78196 256.794 1.75992 257.035 1.84811C257.083 1.86701 257.158 1.89376 257.211 1.89219C257.571 1.87959 257.935 1.87015 258.287 1.84023C258.638 1.8103 258.809 1.90794 259.051 1.95519C259.411 1.93471 259.775 1.91424 260.135 1.89377C260.205 1.88904 260.289 1.87488 260.35 1.88275C260.609 1.91582 260.758 2.03393 261.114 1.99771C261.32 1.97724 261.544 1.97095 261.76 1.96622C261.817 1.96465 261.891 1.99141 261.931 2.01188C261.953 2.0229 261.931 2.05282 261.904 2.06857C261.825 2.11267 261.729 2.15363 261.659 2.1993C261.65 2.2056 261.733 2.23393 261.781 2.24653C261.9 2.27488 262.036 2.27017 262.194 2.25757C262.33 2.24654 262.471 2.26859 262.567 2.31584C262.607 2.33473 262.594 2.36623 262.51 2.47017C262.51 2.54734 262.603 2.51268 262.633 2.46229C262.682 2.38984 262.589 2.36622 262.414 2.40559C262.291 2.43394 262.229 2.47489 262.26 2.50796C262.278 2.52529 262.361 2.54734 262.51 2.47017C262.897 2.37568 263.187 2.35836 263.476 2.34104C263.551 2.33631 263.639 2.32056 263.691 2.33C263.88 2.3678 264.056 2.41348 264.24 2.456C264.451 2.44655 264.649 2.42292 264.855 2.48434C265.145 2.57095 265.158 2.56308 265.439 2.54576C265.584 2.53631 265.729 2.52845 265.874 2.52058C266.018 2.5127 266.133 2.53632 266.26 2.57254C266.519 2.64656 266.541 2.64655 266.712 2.54576C266.813 2.48434 266.883 2.46387 267.011 2.49222C267.432 2.58829 267.437 2.59458 267.797 2.56623C268.095 2.54261 268.376 2.53631 268.596 2.62608C268.745 2.68907 268.793 2.6749 268.912 2.60876C269.228 2.43395 269.373 2.43709 269.966 2.56308C270.242 2.62292 270.528 2.55836 270.809 2.55049C271.046 2.54419 271.213 2.58198 271.23 2.68119C271.243 2.74261 271.283 2.78672 271.441 2.80719C271.502 2.81507 271.577 2.82609 271.638 2.82294C272.003 2.80404 272.363 2.78199 272.727 2.75994C272.912 2.74891 273.013 2.67491 272.978 2.57727C272.938 2.47333 273.008 2.43552 273.272 2.40559C273.43 2.38827 273.557 2.39143 273.684 2.41978C273.825 2.45128 273.785 2.47962 273.663 2.53632C273.368 2.67491 273.403 2.75994 273.781 2.856C273.913 2.88907 274.018 2.91901 274.049 2.96783C274.066 2.99303 274.049 3.0261 274.088 3.045C274.304 3.15051 274.602 3.21824 274.936 3.26863C275.256 3.22611 275.476 3.29697 275.722 3.35366C275.915 3.39776 276.143 3.35997 276.35 3.34422C276.582 3.3269 276.775 3.33949 276.942 3.39776C277.061 3.43871 277.184 3.4576 277.329 3.44973C277.618 3.4324 277.913 3.42138 278.198 3.39619C278.444 3.37414 278.628 3.40564 278.782 3.45918C278.975 3.5269 279.19 3.48123 279.392 3.49067C279.664 3.5017 279.801 3.64186 280.156 3.60406C280.367 3.58201 280.587 3.57414 280.806 3.56784C280.863 3.56627 280.933 3.59304 280.982 3.61194C281.214 3.69856 281.487 3.69383 281.785 3.66863C281.991 3.65131 282.193 3.63557 282.395 3.69541C282.729 3.7962 283.098 3.8844 283.449 3.97732C283.497 4.04976 283.462 4.13479 283.713 4.17731C283.844 4.19936 283.967 4.23244 284.068 4.26866C284.191 4.31119 284.305 4.32221 284.463 4.31119C284.749 4.28914 285.047 4.2844 285.328 4.25605C285.587 4.23086 285.75 4.28284 285.908 4.33166C286.035 4.37103 286.154 4.38992 286.307 4.36158C286.466 4.3348 286.58 4.35212 286.707 4.39464C286.887 4.45291 286.9 4.44662 287.497 4.46395C287.559 4.46552 287.633 4.48913 287.669 4.5096C287.686 4.52063 287.647 4.55214 287.616 4.56789C287.576 4.58679 287.515 4.60883 287.458 4.61355C286.808 4.6545 286.154 4.69072 285.504 4.73166C285.438 4.73639 285.368 4.74742 285.32 4.76317C285.267 4.7805 285.201 4.8041 285.201 4.82615C285.201 4.8419 285.289 4.8608 285.35 4.87183C285.543 4.90805 285.772 4.85293 285.961 4.89388C286.088 4.92065 286.193 4.95844 286.321 4.98364C286.373 4.99466 286.457 4.99309 286.523 4.98994C286.742 4.97892 286.957 4.96317 287.177 4.95372C287.238 4.95215 287.309 4.96791 287.366 4.9805C287.787 5.075 287.787 5.07499 288.152 5.05452C288.296 5.04664 288.45 5.02302 288.586 5.03247C288.718 5.04192 288.832 5.08444 288.951 5.11121C289.197 5.16791 289.429 5.22302 289.447 5.34586C289.456 5.39311 289.6 5.43405 289.745 5.4372C289.886 5.44035 290.035 5.42304 290.18 5.41359C290.522 5.39469 290.522 5.39469 290.966 5.49076C291.089 5.51753 291.22 5.52067 291.379 5.50493C291.44 5.49863 291.515 5.50493 291.581 5.51281C291.796 5.53643 291.796 5.56634 291.655 5.62304C291.458 5.70651 291.475 5.71439 292.028 5.78525C292.239 5.81203 292.402 5.86243 292.577 5.90652C292.863 5.97739 292.858 5.97738 292.669 6.07029C292.626 6.09077 292.586 6.11282 292.542 6.13487C292.415 6.19629 292.314 6.26243 292.05 6.26873C291.761 6.27503 291.471 6.30023 291.181 6.31756C290.9 6.33488 290.825 6.37266 290.852 6.47975C290.882 6.60889 290.94 6.62307 291.444 6.62149C291.589 6.62149 291.717 6.63409 291.826 6.67661C291.774 6.72701 291.677 6.76638 291.537 6.77583C291.177 6.79945 290.812 6.81993 290.452 6.8404C290.162 6.85773 289.873 6.87504 289.583 6.89237C289.403 6.90339 289.289 6.98529 289.337 7.07663C289.363 7.1286 289.385 7.18057 289.407 7.23254C289.455 7.33648 289.548 7.36326 289.842 7.35854C289.917 7.35696 289.987 7.34435 290.057 7.3475C290.342 7.35853 290.478 7.48924 290.821 7.46246C291.106 7.44042 291.405 7.4357 291.686 7.40735C291.945 7.38215 292.09 7.43886 292.27 7.48138C292.331 7.49555 292.397 7.52546 292.45 7.52389C292.814 7.50656 293.179 7.48925 293.534 7.45933C293.701 7.44673 293.802 7.45618 293.934 7.49397C294.25 7.58531 294.259 7.58059 294.729 7.55224C295.071 7.53019 295.076 7.53334 295.515 7.62941C295.638 7.65618 295.769 7.65618 295.927 7.64358C296.134 7.62783 296.349 7.60263 296.564 7.62626C296.63 7.63256 296.713 7.65146 296.735 7.67193C296.748 7.68611 296.687 7.72075 296.634 7.73178C296.248 7.81367 295.796 7.7995 295.374 7.83257C295.242 7.84202 295.111 7.81209 295.001 7.76957C294.887 7.72705 294.764 7.70974 294.615 7.71761C294.325 7.73493 294.031 7.74595 293.745 7.77115C293.499 7.7932 293.328 7.75697 293.157 7.70815C293.1 7.6924 293.034 7.66248 292.977 7.66405C292.327 7.69555 291.673 7.72705 291.027 7.77115C290.768 7.79005 290.619 7.73966 290.443 7.69714C290.382 7.68296 290.321 7.65304 290.263 7.65461C290.044 7.66091 289.829 7.67823 289.609 7.69083C288.81 7.73808 288.015 7.78532 287.216 7.82942C287.164 7.83257 287.098 7.79949 287.036 7.78532C286.918 7.75697 286.795 7.73019 286.672 7.70342C286.452 7.71602 286.237 7.73177 286.018 7.74122C285.86 7.74752 285.719 7.76957 285.697 7.82942C285.684 7.86879 285.829 7.90501 285.983 7.90186C286.132 7.89871 286.281 7.87981 286.404 7.90028C287.014 8.00107 287.014 8.00265 287.396 7.98217C287.73 7.96328 287.695 7.94752 287.989 8.03414C288.116 8.07194 288.231 8.09399 288.375 8.08454C288.735 8.0625 289.1 8.04044 289.464 8.02155C289.521 8.0184 289.596 8.03415 289.653 8.04675C290.083 8.14124 290.083 8.14439 290.439 8.12076C290.904 8.09242 290.922 8.08454 291.234 8.18061C291.449 8.24675 291.646 8.20108 291.853 8.19793C292.09 8.25935 292.349 8.31448 292.564 8.38377C292.819 8.46566 293.087 8.45148 293.376 8.42785C293.591 8.41053 293.802 8.40423 293.978 8.4688C294.145 8.52865 294.347 8.53496 294.575 8.51921C294.781 8.50503 294.992 8.4751 295.207 8.50975C295.264 8.5192 295.352 8.54283 295.348 8.557C295.343 8.57905 295.286 8.61055 295.229 8.62C294.825 8.68457 294.382 8.68299 293.956 8.71291C293.899 8.71764 293.824 8.70031 293.767 8.68771C293.644 8.65936 293.526 8.6263 293.407 8.59637C293.192 8.60582 292.972 8.60896 292.762 8.62786C292.599 8.64204 292.476 8.64048 292.358 8.60268C292.248 8.56803 292.129 8.5255 291.998 8.51448C291.866 8.50345 291.712 8.52708 291.567 8.53653C291.423 8.54598 291.256 8.54124 291.142 8.56644C291.027 8.59164 290.957 8.64677 290.882 8.69086C290.799 8.73968 290.685 8.75544 290.518 8.76017C290.364 8.76489 290.241 8.75858 290.127 8.71449C290.079 8.69559 290.013 8.68141 289.947 8.66881C289.886 8.65779 289.816 8.64046 289.758 8.64361C289.104 8.67983 288.454 8.71922 287.8 8.75701C287.475 8.77591 287.48 8.7759 286.804 8.68298C286.742 8.67511 286.667 8.66409 286.606 8.66723C286.242 8.68613 285.882 8.70819 285.517 8.73023C285.148 8.75228 285.153 8.74913 284.525 8.64991C284.411 8.63102 284.244 8.65622 284.108 8.65307C283.822 8.64519 283.682 8.51291 283.348 8.53811C283.063 8.56015 282.764 8.56487 282.479 8.59322C282.22 8.61842 282.071 8.5633 281.895 8.52078C281.833 8.50661 281.768 8.47511 281.715 8.47826C281.061 8.51291 280.411 8.55228 279.542 8.557C279.326 8.557 279.423 8.59008 279.563 8.6011C279.765 8.61843 279.831 8.58535 279.722 8.52236C279.643 8.47826 279.528 8.4562 279.436 8.46722C279.388 8.47352 279.326 8.50346 279.542 8.557C279.77 8.61685 279.757 8.64991 279.796 8.66881C279.893 8.71448 280.029 8.73338 280.169 8.72708C280.389 8.71606 280.604 8.70031 280.824 8.69086C280.885 8.68771 280.96 8.69874 281.017 8.71134C281.5 8.80898 281.504 8.81528 282.018 8.77749C282.18 8.76646 282.299 8.76646 282.426 8.79638C282.602 8.83733 282.729 8.90661 282.997 8.88457C283.353 8.85464 283.717 8.83733 284.081 8.82001C284.138 8.81686 284.2 8.84521 284.266 8.85781C284.446 8.8956 284.578 8.96647 284.845 8.93655C285.052 8.91293 285.276 8.90661 285.495 8.90189C285.552 8.90031 285.64 8.92552 285.666 8.94599C285.719 8.98221 285.653 9.02474 285.504 9.05466C285.443 9.06726 285.359 9.06411 285.289 9.06883C284.999 9.08615 284.709 9.10504 284.419 9.11922C284.266 9.12709 284.121 9.15073 284.103 9.209C284.09 9.24837 284.248 9.28301 284.398 9.27986C284.617 9.27513 284.837 9.26254 285.047 9.24206C285.421 9.20742 285.745 9.21686 286.048 9.31608C286.264 9.38537 286.25 9.36018 286.479 9.56492C286.536 9.61689 286.707 9.62161 286.856 9.61846C287.216 9.61058 287.383 9.63421 287.352 9.68303C287.313 9.74288 287.186 9.76176 287.023 9.76964C286.733 9.78224 286.444 9.80272 286.154 9.82004C286.084 9.82477 286.004 9.83421 285.939 9.83106C285.873 9.82791 285.811 9.80901 285.754 9.79484C285.631 9.76492 285.526 9.71924 285.394 9.70821C285.262 9.69719 285.109 9.72082 284.964 9.73026C284.819 9.73814 284.665 9.76176 284.534 9.75074C284.402 9.73971 284.292 9.69248 284.174 9.66413C284.117 9.64996 284.046 9.6279 283.989 9.62947C283.699 9.64207 283.41 9.66255 283.12 9.6783C282.764 9.69877 282.764 9.69878 282.334 9.60113C282.211 9.57279 282.084 9.57437 281.921 9.58697C281.57 9.61216 281.566 9.60743 280.925 9.51609C280.863 9.50664 280.788 9.49562 280.727 9.50034C280.073 9.53656 279.423 9.57593 278.773 9.61373C278.216 9.6468 278.216 9.64681 277.908 9.8043C277.68 9.92084 277.675 9.92083 277.899 9.97438C278.079 10.0185 278.242 10.083 278.439 10.1067C278.624 10.1287 278.852 10.0578 279.054 10.1303C279.155 10.1665 279.287 10.2059 279.414 10.2122C279.616 10.2201 279.831 10.1744 280.025 10.2437C280.121 10.2783 280.266 10.3146 280.389 10.3161C280.604 10.3193 280.824 10.2941 281.039 10.283C281.105 10.2799 281.179 10.2799 281.241 10.2878C281.307 10.2972 281.364 10.3161 281.421 10.3319C281.596 10.3854 281.785 10.4106 282.013 10.3838C282.387 10.3397 282.72 10.3618 283.01 10.4626C283.05 10.4768 283.146 10.4783 283.208 10.472C283.366 10.4563 283.502 10.4547 283.62 10.4846C283.669 10.4972 283.739 10.5193 283.73 10.5334C283.717 10.5571 283.664 10.5886 283.607 10.5964C283.194 10.65 282.751 10.6563 282.325 10.6846C282.268 10.6878 282.198 10.6673 282.141 10.6531C282.018 10.6248 281.912 10.5775 281.781 10.5665C281.649 10.5555 281.495 10.576 281.35 10.5838C281.206 10.5917 281.052 10.6153 280.92 10.6059C280.788 10.5949 280.666 10.5555 280.56 10.5208C280.437 10.4815 280.319 10.4768 280.156 10.4925C279.945 10.513 279.726 10.5161 279.511 10.5272C279.392 10.4972 279.274 10.4641 279.151 10.4358C279.094 10.4216 279.023 10.4043 278.962 10.4059C278.672 10.4185 278.382 10.4374 278.093 10.4547C277.803 10.472 277.803 10.472 277.311 10.3744C277.254 10.3634 277.179 10.3508 277.118 10.3539C276.753 10.3728 276.393 10.3964 276.029 10.4153C275.888 10.4232 275.761 10.4012 275.647 10.3586C275.537 10.3161 275.406 10.2925 275.269 10.3004C274.69 10.3334 274.11 10.3649 273.531 10.4043C273.298 10.4201 273.1 10.4059 272.942 10.3492C272.758 10.2846 272.552 10.3004 272.337 10.313C271.849 10.3445 271.845 10.3429 271.533 10.2626C271.472 10.2468 271.41 10.2169 271.353 10.2185C270.848 10.2421 270.339 10.2641 269.838 10.3019C269.575 10.3224 269.434 10.2673 269.259 10.2263C269.197 10.2122 269.131 10.1823 269.079 10.1854C268.714 10.2027 268.35 10.2185 267.994 10.25C267.639 10.2815 267.502 10.135 267.235 10.1366C266.87 10.1382 266.51 10.1744 266.15 10.1964C265.86 10.2138 265.571 10.2311 265.281 10.2484C264.991 10.2657 264.701 10.2799 264.411 10.3004C264.258 10.3114 264.144 10.2972 264.016 10.2578C263.854 10.2059 263.661 10.1649 263.485 10.1177C263.217 10.05 263.217 10.05 262.892 10.0689C262.822 10.0736 262.747 10.0767 262.677 10.0815C262.146 10.1161 262.146 10.113 261.47 10.0137C261.439 10.009 261.36 10.0264 261.329 10.0389C261.237 10.0799 261.154 10.124 261.07 10.1665C260.952 10.1413 260.807 10.1271 260.728 10.0909C260.504 9.98855 260.153 10.1287 259.924 10.0279C259.841 9.99012 259.696 9.95704 259.564 9.9476C259.428 9.93815 259.274 9.9602 259.134 9.96965C258.77 9.99327 258.77 9.9917 258.458 10.1319C258.3 10.2012 258.071 10.1885 257.865 10.2043C257.65 10.2216 257.444 10.2311 257.264 10.1665C257.101 10.1082 256.904 10.0941 256.671 10.113C256.385 10.1366 256.091 10.1508 255.802 10.1649C255.74 10.1681 255.665 10.1602 255.604 10.1508C254.932 10.0578 254.932 10.0563 254.607 10.0767C254.462 10.0862 254.313 10.0893 254.173 10.1035C253.935 10.1287 253.755 10.0956 253.584 10.0452C253.527 10.0295 253.461 9.99958 253.404 10.0012C253.114 10.009 252.829 10.0232 252.544 10.0374C252.324 10.0484 252.105 10.0547 251.894 10.0767C251.543 10.113 251.371 10.0106 251.13 9.96334C250.77 9.98381 250.405 9.99799 250.045 10.0263C249.879 10.0389 249.769 10.0342 249.641 9.99643C249.479 9.94918 249.33 9.89564 249.066 9.91926C248.715 9.95076 248.346 9.96178 247.986 9.98068C247.745 9.93186 247.569 9.83263 247.222 9.86885C247.012 9.8909 246.788 9.89563 246.572 9.90822C246.283 9.92555 245.993 9.94131 245.703 9.96021C245.391 9.9791 245.396 9.97438 244.917 9.88146C244.641 9.82634 244.355 9.88776 244.074 9.89721C243.855 9.90508 243.745 9.97752 243.798 10.0704C243.85 10.1634 243.732 10.2358 243.53 10.2484C243.025 10.2783 242.515 10.3098 242.011 10.3366C241.949 10.3397 241.874 10.3287 241.817 10.3177C241.277 10.2185 241.277 10.2201 241.036 10.2342C240.676 10.2579 240.307 10.2704 239.951 10.3004C239.705 10.3208 239.525 10.2878 239.367 10.2342C239.244 10.1933 239.13 10.1838 238.972 10.1933C237.234 10.2988 235.495 10.3964 233.761 10.5051C233.502 10.5209 233.352 10.4752 233.177 10.4327C233.115 10.4185 233.058 10.3886 232.997 10.3886C232.852 10.3886 232.707 10.4027 232.562 10.4122C231.912 10.45 231.262 10.4957 230.608 10.524C230.332 10.5366 230.257 10.609 230.138 10.6689C230.046 10.7146 229.941 10.7335 229.778 10.7398C229.62 10.7461 229.506 10.7382 229.383 10.6972C229.225 10.6437 229.045 10.6106 228.799 10.6327C228.514 10.6579 228.224 10.6689 227.93 10.6862C227.781 10.6941 227.666 10.7224 227.618 10.7791C227.609 10.7886 227.702 10.8122 227.754 10.8264C227.93 10.8736 228.097 10.9287 228.294 10.9618C228.496 10.9949 228.716 10.9571 228.926 10.9476C229.001 10.9445 229.071 10.935 229.142 10.9366C229.207 10.9382 229.287 10.9461 229.335 10.9602C229.563 11.0311 229.805 11.0799 230.121 11.0374C230.393 11.0579 230.534 11.1886 230.88 11.1539C231.091 11.1335 231.311 11.124 231.53 11.1161C231.587 11.1146 231.649 11.1429 231.71 11.1571C231.886 11.1965 232.026 11.2595 232.29 11.2327C232.571 11.2043 232.869 11.1996 233.155 11.1776C233.313 11.165 233.427 11.176 233.55 11.2169C233.708 11.2689 233.888 11.3083 234.134 11.2831C234.345 11.261 234.568 11.2563 234.784 11.2421C235.065 11.2248 235.065 11.2264 235.565 11.324C235.622 11.335 235.697 11.3476 235.758 11.3445C236.123 11.3256 236.483 11.302 236.847 11.2831C236.988 11.2752 237.124 11.2957 237.22 11.3413C237.26 11.3602 237.247 11.3918 237.26 11.4185C236.535 11.461 235.811 11.4973 235.091 11.5492C234.819 11.5697 234.696 11.5051 234.516 11.4689C234.454 11.4563 234.388 11.4295 234.331 11.4327C233.822 11.4595 233.317 11.4878 232.812 11.5225C232.654 11.5335 232.536 11.5272 232.417 11.4815C232.114 11.3602 231.745 11.4264 231.403 11.4437C231.139 11.4563 231.056 11.5051 231.087 11.6091C231.126 11.7319 231.284 11.7697 231.688 11.7477C231.833 11.7398 231.978 11.7288 232.123 11.7225C232.263 11.7162 232.391 11.7366 232.505 11.7792C232.615 11.8217 232.746 11.8437 232.882 11.8374C233.172 11.8233 233.466 11.8091 233.747 11.7855C233.98 11.7666 234.173 11.7823 234.336 11.8406C234.516 11.9051 234.727 11.891 234.937 11.8768C235.429 11.8453 235.433 11.8469 235.741 11.9256C235.802 11.9414 235.864 11.9713 235.921 11.9697C236.426 11.9461 236.935 11.9256 237.431 11.8878C237.69 11.8689 237.84 11.9193 238.011 11.9603C238.072 11.9744 238.134 12.0059 238.191 12.0028C238.555 11.9855 238.92 11.9681 239.275 11.9382C239.442 11.924 239.543 11.9335 239.679 11.9713C240.004 12.0642 240.013 12.0611 240.474 12.0311C240.614 12.0217 240.768 12.0044 240.9 12.017C241.031 12.0296 241.137 12.0752 241.26 12.1036C241.317 12.1162 241.387 12.1335 241.449 12.1303C241.738 12.1177 242.028 12.0989 242.318 12.0815C242.59 12.0642 242.59 12.0658 243.099 12.1634C243.306 12.2044 243.521 12.1697 243.727 12.1571C243.951 12.143 244.153 12.143 244.324 12.2044C244.496 12.2658 244.702 12.2626 244.922 12.25C245.128 12.2374 245.339 12.2028 245.549 12.2453C246.032 12.343 246.032 12.3445 246.331 12.3256C246.766 12.2989 247.196 12.2737 247.635 12.25C247.692 12.2469 247.767 12.2658 247.824 12.2784C247.947 12.3067 248.052 12.354 248.184 12.365C248.315 12.3776 248.469 12.3587 248.61 12.3493C249.062 12.3193 249.093 12.3083 249.396 12.4123C249.65 12.4973 249.966 12.3745 250.203 12.4721C250.34 12.5272 250.524 12.5713 250.779 12.5445C250.989 12.5225 251.209 12.5162 251.428 12.5036C251.775 12.4831 251.775 12.4847 252.214 12.5792C252.271 12.5918 252.346 12.6075 252.403 12.6044C252.693 12.5918 252.987 12.5808 253.268 12.5524C253.597 12.5193 253.808 12.5792 254.054 12.6375C254.247 12.6831 254.476 12.6453 254.682 12.6296C254.906 12.6138 255.108 12.6186 255.275 12.68C255.45 12.743 255.657 12.7351 255.876 12.7225C256.082 12.7115 256.293 12.6752 256.504 12.7193C256.956 12.817 256.956 12.817 257.285 12.7981C257.575 12.7808 257.865 12.7619 258.155 12.7493C258.212 12.7461 258.282 12.7666 258.339 12.7808C258.462 12.8091 258.568 12.8564 258.699 12.8674C258.831 12.8784 258.985 12.8579 259.13 12.8501C259.274 12.8422 259.428 12.8186 259.56 12.828C259.692 12.8375 259.814 12.8768 259.92 12.9115C260.043 12.9524 260.157 12.9572 260.324 12.9414C260.535 12.9209 260.754 12.9162 260.969 12.9052C261.088 12.9351 261.211 12.965 261.325 12.9981C261.443 13.0327 261.571 13.0296 261.733 13.0186C262.273 12.9808 262.278 12.9855 262.73 13.0831C262.936 13.1272 263.151 13.091 263.358 13.08C263.577 13.0674 263.784 13.0611 263.955 13.1241C264.122 13.1839 264.328 13.1918 264.548 13.1729C264.688 13.1603 264.837 13.1524 264.982 13.1477C265.048 13.1461 265.127 13.1524 265.175 13.165C265.408 13.2312 265.636 13.291 265.957 13.2485C266.238 13.2611 266.378 13.3902 266.717 13.3651C267.002 13.343 267.3 13.3383 267.581 13.3099C267.841 13.2847 268.025 13.3288 268.157 13.3839C268.394 13.4816 268.727 13.3493 268.965 13.4454C269.101 13.5005 269.276 13.5446 269.54 13.521C269.829 13.4958 269.922 13.5288 270.005 13.628C270.053 13.6847 270.045 13.7304 269.957 13.7745C269.869 13.8202 269.772 13.8123 269.632 13.7603C269.47 13.7021 269.276 13.691 269.044 13.7036C268.815 13.7162 268.675 13.6344 268.486 13.6029C268.297 13.5698 268.073 13.6249 267.876 13.5824C267.41 13.4832 267.41 13.4832 267.094 13.5021C266.879 13.5147 266.655 13.521 266.444 13.543C266.194 13.5698 266.032 13.521 265.86 13.4769C265.799 13.4611 265.737 13.4312 265.685 13.4328C265.18 13.4564 264.67 13.4784 264.17 13.5178C263.907 13.5383 263.766 13.4816 263.59 13.4422C263.529 13.428 263.463 13.3997 263.41 13.4028C262.976 13.4249 262.545 13.4532 262.111 13.48C262.027 13.5225 261.935 13.5635 261.856 13.6091C261.773 13.6564 261.659 13.6769 261.492 13.6753C261.215 13.6753 260.943 13.7414 260.666 13.658C260.381 13.5729 260.359 13.5777 260.082 13.5981C259.731 13.6249 259.358 13.6186 259.029 13.68C258.971 13.691 258.91 13.721 258.91 13.743C258.906 13.7572 258.998 13.7777 259.055 13.7903C259.248 13.8281 259.472 13.7729 259.665 13.8123C259.793 13.8375 259.898 13.8753 260.025 13.9021C260.078 13.9131 260.157 13.9115 260.227 13.9099C260.302 13.9084 260.372 13.8974 260.442 13.8989C260.508 13.9005 260.579 13.9099 260.631 13.9241C260.873 13.984 261.127 14.0391 261.342 14.11C261.553 14.1792 261.751 14.132 261.961 14.1289C262.804 14.2391 262.805 14.2407 263.371 14.206C263.511 14.1981 263.656 14.1887 263.801 14.1903C263.863 14.1903 263.92 14.2186 263.981 14.2344C264.157 14.2816 264.324 14.3241 264.57 14.2989C264.78 14.2769 265.004 14.2722 265.219 14.258C265.509 14.2407 265.509 14.2407 266.001 14.3399C266.124 14.3651 266.256 14.3619 266.414 14.3493C266.55 14.3383 266.69 14.3619 266.787 14.4076C266.826 14.4265 266.813 14.458 266.826 14.4848C266.392 14.51 265.953 14.5273 265.531 14.5651C265.259 14.5887 265.136 14.521 264.956 14.4848C264.894 14.4722 264.829 14.4454 264.772 14.4486C264.341 14.4722 263.911 14.4989 263.481 14.5304C263.428 14.5336 263.362 14.5698 263.358 14.5919C263.349 14.6328 263.459 14.6722 263.617 14.6706C263.827 14.669 264.034 14.6422 264.223 14.7068C264.381 14.7635 264.578 14.7887 264.811 14.7635C264.951 14.7494 265.101 14.7493 265.241 14.7367C265.615 14.6989 265.953 14.7068 266.234 14.8139C266.449 14.8423 266.659 14.8155 266.866 14.8013C267.02 14.7903 267.169 14.7793 267.279 14.8092C267.511 14.8722 267.74 14.9352 268.06 14.8927C268.407 14.9368 268.67 15.0297 268.96 15.1053C269.096 15.1415 269.202 15.162 269.36 15.1383C269.426 15.1289 269.505 15.1289 269.575 15.1242C269.72 15.1163 269.873 15.0927 270.005 15.1021C270.137 15.1131 270.247 15.1588 270.365 15.1872C270.422 15.2013 270.488 15.2249 270.545 15.2234C270.765 15.2155 270.98 15.1998 271.195 15.1872C271.41 15.1761 271.625 15.1651 271.84 15.1541C272.02 15.195 272.205 15.236 272.385 15.2769C272.675 15.2596 272.964 15.2423 273.25 15.2265C273.57 15.2076 273.57 15.2092 274.031 15.3068C274.238 15.3509 274.457 15.3226 274.655 15.3021C274.984 15.269 275.204 15.3289 275.436 15.3919C275.485 15.4045 275.572 15.4124 275.629 15.4061C275.858 15.384 276.055 15.4013 276.222 15.4596C276.341 15.5005 276.459 15.5195 276.604 15.5116C277.109 15.4817 277.614 15.4502 278.119 15.4234C278.18 15.4202 278.251 15.4344 278.308 15.447C278.756 15.5431 278.76 15.5478 279.089 15.5226C279.383 15.5006 279.656 15.4911 279.888 15.5777C279.937 15.5966 280.011 15.6234 280.064 15.6218C280.424 15.6061 280.788 15.5887 281.144 15.562C281.307 15.5494 281.421 15.5541 281.548 15.5903C281.71 15.636 281.855 15.6911 282.123 15.6706C282.865 15.6124 282.87 15.6218 283.748 15.7305C283.809 15.7383 283.893 15.7258 283.963 15.7195C284.112 15.7037 284.222 15.7258 284.354 15.762C284.648 15.8439 284.657 15.8392 284.938 15.8218C285.153 15.8077 285.377 15.8045 285.587 15.7809C285.912 15.7462 286.127 15.8077 286.369 15.8659C286.562 15.9116 286.786 15.8738 286.992 15.8596C287.216 15.8439 287.418 15.8486 287.585 15.9084C287.699 15.9494 287.822 15.9714 287.967 15.9636C288.472 15.9352 288.977 15.9037 289.482 15.8754C289.543 15.8722 289.618 15.8848 289.675 15.8958C290.176 15.9935 290.176 15.9982 290.672 15.962C290.83 15.951 290.961 15.9478 291.08 15.9809C291.194 16.0124 291.317 16.0423 291.436 16.0722C291.651 16.0612 291.87 16.0581 292.081 16.0392C292.244 16.025 292.358 16.0313 292.485 16.0644C292.652 16.1069 292.792 16.1809 293.056 16.1447C293.192 16.1273 293.35 16.1321 293.486 16.1163C293.649 16.0959 293.758 16.1084 293.886 16.1494C294.044 16.1982 294.206 16.2486 294.461 16.2234C294.742 16.1951 295.04 16.1903 295.326 16.1683C295.484 16.1557 295.594 16.1683 295.721 16.2092C295.879 16.2612 296.059 16.2943 296.305 16.2738C296.805 16.2344 296.81 16.2423 297.297 16.3415C297.42 16.3667 297.552 16.3636 297.71 16.351C297.846 16.34 297.986 16.3636 298.083 16.4092C298.175 16.4596 298.166 16.4911 298.175 16.5179ZM259.051 2.31426C258.906 2.32213 258.761 2.33158 258.55 2.19457C258.537 2.17095 258.546 2.1426 258.515 2.12213C258.445 2.07961 258.335 2.04969 258.203 2.04496C257.966 2.03867 257.681 2.0922 257.685 2.13315C257.689 2.16779 257.764 2.19771 257.909 2.22606C257.97 2.23708 258.019 2.25598 258.076 2.26858C258.243 2.3048 258.374 2.37568 258.616 2.33946C258.572 2.24182 258.594 2.29064 258.616 2.33946C258.594 2.39931 258.66 2.44183 258.818 2.45915C258.862 2.46388 258.928 2.46072 258.963 2.45127C259.099 2.41662 259.121 2.36939 259.02 2.24497C259.002 2.26545 259.015 2.30166 259.055 2.31111C259.094 2.32056 259.191 2.31269 259.239 2.30167C259.362 2.27175 259.424 2.23237 259.393 2.1993C259.375 2.18197 259.292 2.15993 259.239 2.15993C259.147 2.15993 259.064 2.19457 259.051 2.31426ZM294.553 20.5779C294.232 20.6078 293.864 20.5968 293.543 20.6582C293.486 20.6692 293.429 20.6976 293.425 20.7196C293.42 20.7338 293.508 20.7543 293.561 20.7653C293.679 20.7905 293.811 20.7826 293.965 20.7747C294.197 20.7637 294.333 20.8362 294.514 20.8724C294.571 20.8834 294.645 20.8913 294.707 20.8881C295.062 20.8692 295.414 20.8488 295.769 20.8267C295.831 20.822 295.897 20.811 295.949 20.7968C296.125 20.7511 296.107 20.7212 295.936 20.6866C295.747 20.6488 295.598 20.5858 295.405 20.5558C295.128 20.5133 294.847 20.57 294.553 20.5779ZM269.619 21.7275C269.404 21.7401 269.193 21.7527 268.978 21.7653C268.907 21.7701 268.833 21.7716 268.767 21.7779C268.631 21.789 268.53 21.822 268.464 21.874C268.565 21.9149 268.688 21.9386 268.824 21.9338C269.039 21.9244 269.25 21.9039 269.465 21.8992C269.698 21.8929 269.834 21.9638 270.014 22C270.071 22.011 270.141 22.0126 270.207 22.0142C270.532 22.0205 270.73 21.9386 270.668 21.8236C270.624 21.7338 270.457 21.6803 270.255 21.6913C270.045 21.7024 269.83 21.7149 269.619 21.7275ZM296.055 18.2502C296.107 18.2235 296.164 18.2046 296.191 18.181C296.27 18.1006 296.239 18.0408 296.094 17.9778C295.918 17.9006 295.703 17.9526 295.506 17.9605C295.458 17.9621 295.405 17.9951 295.378 18.0156C295.361 18.0298 295.361 18.0597 295.387 18.0676C295.602 18.1306 295.831 18.1888 296.055 18.2502ZM257.966 13.5981C257.755 13.6107 257.54 13.6202 257.329 13.6375C257.277 13.6422 257.228 13.6721 257.198 13.6926C257.141 13.7304 257.202 13.7824 257.382 13.7871C257.588 13.7934 257.804 13.7666 258.019 13.754C258.291 13.7383 258.453 13.68 258.352 13.6296C258.256 13.5808 258.124 13.5714 257.966 13.5981ZM26.8486 10.2327C26.9891 10.2248 27.1339 10.2185 27.2744 10.2075C27.4061 10.1964 27.5072 10.1618 27.5731 10.1098C27.4633 10.0689 27.3403 10.0468 27.2042 10.0515C26.9891 10.061 26.7784 10.0736 26.5676 10.0893C26.4359 10.0988 26.3086 10.1334 26.2779 10.187C26.2471 10.2279 26.5412 10.2516 26.8486 10.2327ZM239.398 9.99012C239.455 10.0043 239.512 10.0326 239.569 10.0326C239.71 10.0326 239.855 10.0232 239.987 10.0074C240.044 10.0011 240.087 9.9728 240.114 9.95075C240.131 9.93657 240.127 9.91138 240.101 9.89879C239.973 9.82319 239.464 9.84996 239.381 9.93658C239.372 9.95233 239.394 9.9728 239.398 9.99012ZM225.546 1.36619C225.559 1.39139 225.563 1.41658 225.581 1.44178C225.616 1.48903 225.713 1.52368 225.853 1.5473C225.963 1.50793 226.02 1.46384 226.016 1.4166C226.011 1.3914 225.998 1.36619 225.98 1.34099C225.945 1.29374 225.849 1.25911 225.708 1.23549C225.598 1.27328 225.546 1.31737 225.546 1.36619ZM306.201 22.0016C306.162 22.022 306.122 22.0425 306.078 22.0614C306.197 22.1071 306.307 22.1213 306.39 22.0961C306.443 22.0803 306.474 22.0567 306.513 22.0362C306.395 21.9905 306.289 21.9779 306.201 22.0016ZM303.47 22.2157C303.527 22.2299 303.58 22.2488 303.642 22.2583C303.743 22.274 303.835 22.2472 303.905 22.1905C303.848 22.1764 303.795 22.1575 303.734 22.148C303.633 22.1323 303.541 22.1591 303.47 22.2157ZM305.2 21.9276C305.169 21.9654 305.231 21.9968 305.393 22.0236C305.433 22.0031 305.486 21.9842 305.512 21.9622C305.556 21.926 305.481 21.8929 305.323 21.8677C305.279 21.8866 305.24 21.9071 305.2 21.9276ZM295.932 20.2299C295.901 20.2677 295.962 20.2991 296.125 20.3259C296.164 20.3054 296.217 20.2865 296.243 20.2645C296.287 20.2283 296.213 20.1952 296.055 20.17C296.011 20.1889 295.971 20.2094 295.932 20.2299ZM283.304 9.08615C283.265 9.10663 283.225 9.1271 283.181 9.146C283.3 9.19167 283.41 9.20584 283.493 9.18064C283.546 9.16489 283.576 9.14127 283.616 9.1208C283.497 9.07512 283.392 9.06253 283.304 9.08615ZM271.208 3.17413C271.313 3.18515 271.401 3.16311 271.476 3.10484C271.419 3.09067 271.366 3.07177 271.305 3.06232C271.204 3.04657 271.112 3.07335 271.041 3.13004C271.098 3.14579 271.155 3.15995 271.208 3.17413ZM264.785 2.80404C264.745 2.82451 264.706 2.84499 264.662 2.86388C264.78 2.90955 264.89 2.92372 264.973 2.89853C265.026 2.88278 265.057 2.85915 265.096 2.83868C264.978 2.79301 264.873 2.78199 264.785 2.80404ZM221.225 1.36461C221.186 1.38509 221.146 1.40556 221.102 1.42446C221.221 1.47013 221.331 1.4843 221.414 1.4591C221.467 1.44335 221.498 1.41973 221.537 1.39926C221.419 1.35359 221.313 1.34257 221.225 1.36461ZM4.33348 14.1777C4.2764 14.1635 4.21937 14.1493 4.16669 14.1336C4.03936 14.1761 3.99986 14.2155 4.07011 14.2454C4.11401 14.2643 4.17982 14.2753 4.2369 14.2895C4.36862 14.247 4.39934 14.2092 4.33348 14.1777Z" fill="#FFE492"/>
<path d="M29.7981 8.61683C29.2932 8.64675 28.7927 8.68454 28.2878 8.70344C28.02 8.71289 27.9234 8.78061 27.8137 8.8436C27.7259 8.894 27.6249 8.90974 27.4624 8.91919C26.0925 8.99636 24.727 9.07826 23.3615 9.15857C23.1903 9.1381 23.1069 9.10503 23.1464 9.06566C23.1683 9.04204 23.2211 9.00897 23.2737 9.00582C24.2089 8.94755 25.1397 8.8877 26.0793 8.84203C26.3471 8.82943 26.4218 8.76013 26.5579 8.70344C26.6018 8.68454 26.637 8.65619 26.694 8.64517C26.7511 8.63257 26.8345 8.63415 26.9092 8.631C28.4196 8.54123 29.93 8.45305 31.4403 8.36328C31.6116 8.38375 31.695 8.41682 31.6555 8.45619C31.6335 8.47982 31.5808 8.51289 31.5281 8.51604C30.9486 8.54911 30.3733 8.58218 29.7981 8.61683Z" fill="#FFE492"/>
<path d="M306.259 17.0032C306.03 17.0221 305.741 17.0488 305.504 16.9575C305.389 16.9134 305.266 16.8992 305.117 16.9087C304.902 16.9244 304.683 16.937 304.463 16.9465C304.406 16.9481 304.331 16.9307 304.274 16.9166C304.151 16.8882 304.046 16.841 303.914 16.8284C303.782 16.8158 303.624 16.8504 303.488 16.8425C303.308 16.8315 303.234 16.789 303.282 16.7496C303.308 16.7276 303.361 16.6961 303.418 16.6914C304.23 16.6331 304.235 16.6331 304.463 16.6898C304.639 16.7339 304.801 16.7827 305.051 16.7559C305.262 16.7339 305.486 16.7291 305.701 16.715C306 16.6961 306 16.6977 306.483 16.7969C306.606 16.8221 306.737 16.8205 306.895 16.8063C307.032 16.7953 307.163 16.8205 307.273 16.863C307.203 16.9166 307.102 16.9512 306.966 16.9607C306.746 16.9764 306.531 16.9874 306.259 17.0032Z" fill="#FFE492"/>
<path d="M298.176 16.5179C298.729 16.4848 299.287 16.4565 299.84 16.4187C300.068 16.4029 300.248 16.4202 300.406 16.4738C300.577 16.5321 300.771 16.5273 300.981 16.5163C301.113 16.51 301.241 16.5352 301.328 16.5793C301.363 16.5966 301.355 16.6281 301.368 16.6533C300.885 16.6817 300.398 16.7116 299.91 16.7368C299.853 16.7399 299.783 16.7242 299.73 16.7116C299.612 16.6848 299.511 16.6376 299.383 16.6281C299.111 16.6061 298.839 16.6486 298.562 16.6565C298.43 16.6596 298.303 16.636 298.215 16.5935C298.18 16.573 298.189 16.5431 298.176 16.5179Z" fill="#FFE492"/>
<path d="M98.2492 2.97735C98.8244 2.9427 99.3995 2.90965 99.9747 2.875C100.146 2.89705 100.225 2.92854 100.19 2.96791C100.168 2.99153 100.115 3.02461 100.062 3.02776C98.9121 3.09863 97.7619 3.16633 96.6159 3.23405C96.4447 3.21201 96.3656 3.18051 96.4008 3.14114C96.4227 3.11752 96.4754 3.08445 96.5281 3.0813C97.0989 3.04507 97.674 3.012 98.2492 2.97735Z" fill="#FFE492"/>
<path d="M9.62087 11.729C9.36183 11.7321 9.08966 11.7904 8.79988 11.7463C8.74281 11.7384 8.66375 11.7132 8.66814 11.699C8.67693 11.6754 8.72962 11.6455 8.7867 11.636C9.03696 11.5967 9.34873 11.5919 9.47606 11.4817C9.53752 11.425 9.65168 11.4061 9.80535 11.3951C9.9678 11.3825 10.0819 11.3872 10.2093 11.4203C10.3761 11.4628 10.5166 11.5415 10.7801 11.5006C10.7932 11.5258 10.8239 11.5541 10.8107 11.5778C10.7975 11.6014 10.7406 11.6234 10.6879 11.6408C10.6396 11.6565 10.5736 11.6707 10.5122 11.6754C10.2224 11.6943 9.93261 11.7101 9.62087 11.729Z" fill="#FFE492"/>
<path d="M237.967 11.4127C238.182 11.4001 238.406 11.3938 238.617 11.3718C238.784 11.3544 238.889 11.3654 239.021 11.4032C239.245 11.4694 239.258 11.4631 239.807 11.4725C239.868 11.4741 239.943 11.4977 239.978 11.5182C240 11.5292 239.969 11.5592 239.943 11.5749C239.903 11.5954 239.846 11.6222 239.793 11.6222C239.447 11.6269 239.095 11.7198 238.757 11.6127C238.586 11.5592 238.397 11.534 238.165 11.5576C238.024 11.5718 237.875 11.5781 237.73 11.5844C237.589 11.5907 237.445 11.5733 237.357 11.5261C237.229 11.4568 237.304 11.43 237.532 11.4348C237.677 11.4379 237.822 11.4206 237.967 11.4127Z" fill="#FFE492"/>
<path d="M317.542 22.2678C317.819 22.2521 318.096 22.2332 318.377 22.2206C318.434 22.2174 318.504 22.2348 318.557 22.2458C318.767 22.293 318.737 22.3733 318.745 22.4442C318.75 22.5182 318.262 22.5781 318.056 22.5277C317.828 22.471 317.621 22.4064 317.305 22.4411C317.182 22.4537 317.037 22.4253 316.958 22.3797C316.84 22.3135 316.906 22.2867 317.13 22.2915C317.261 22.2946 317.402 22.2773 317.542 22.2678Z" fill="#FFE492"/>
<path d="M178.149 0.832314C178.435 0.81499 178.72 0.788231 179.006 0.786656C179.172 0.785081 179.256 0.837042 179.216 0.874838C179.194 0.898461 179.142 0.931534 179.089 0.934684C178.518 0.97248 177.947 1.00398 177.377 1.03863C177.21 1.01658 177.126 0.983515 177.166 0.945718C177.188 0.922095 177.241 0.890598 177.293 0.885873C177.579 0.863825 177.864 0.849637 178.149 0.832314Z" fill="#FFE492"/>
<path d="M312.067 17.1417C312.343 17.1259 312.624 17.1023 312.901 17.0944C313.046 17.0913 313.16 17.1275 313.178 17.1684C313.186 17.1873 313.116 17.2204 313.059 17.2283C312.664 17.2818 312.238 17.2881 311.825 17.3149C311.694 17.3228 311.553 17.2976 311.474 17.2535C311.356 17.1858 311.421 17.1606 311.645 17.1653C311.786 17.1669 311.926 17.1496 312.067 17.1417Z" fill="#FFE492"/>
<path d="M245.22 11.6248C245.36 11.6169 245.505 11.5964 245.641 11.6027C245.786 11.6106 245.878 11.6563 245.922 11.702C245.97 11.7539 245.966 11.8028 245.922 11.8469C245.852 11.9225 245.782 11.9193 245.619 11.8689C245.369 11.7902 245.351 11.7996 244.855 11.8028C244.798 11.8028 244.728 11.7791 244.684 11.7587C244.618 11.7272 244.653 11.6783 244.807 11.65C244.921 11.6295 245.079 11.6327 245.22 11.6248Z" fill="#FFE492"/>
<path d="M301.78 16.6249C301.986 16.6123 302.193 16.5918 302.399 16.5918C302.544 16.5903 302.658 16.6265 302.671 16.6659C302.676 16.6848 302.61 16.7163 302.557 16.7257C302.307 16.7682 302.026 16.7714 301.754 16.7856C301.626 16.7919 301.486 16.7666 301.407 16.7226C301.288 16.6564 301.359 16.6265 301.574 16.6359C301.64 16.6391 301.71 16.6296 301.78 16.6249Z" fill="#FFE492"/>
<path d="M269.303 14.6929C268.996 14.7118 268.706 14.6882 268.728 14.6472C268.758 14.5937 268.886 14.559 269.017 14.5495C269.228 14.5338 269.439 14.5212 269.654 14.5118C269.79 14.5055 269.913 14.5291 270.023 14.57C269.957 14.6204 269.856 14.6566 269.724 14.6677C269.588 14.6787 269.443 14.685 269.303 14.6929Z" fill="#FFE492"/>
<path d="M267.286 14.4911C267.492 14.4785 267.699 14.4581 267.905 14.4581C268.05 14.4565 268.164 14.4927 268.177 14.5321C268.182 14.551 268.116 14.5825 268.063 14.5919C267.813 14.6344 267.532 14.6376 267.26 14.6518C267.132 14.6581 266.992 14.6329 266.913 14.5888C266.794 14.5226 266.864 14.4927 267.08 14.5022C267.145 14.5053 267.216 14.4958 267.286 14.4911Z" fill="#FFE492"/>
<path d="M242.731 11.6123C242.938 11.5997 243.144 11.5793 243.35 11.5777C243.495 11.5761 243.609 11.6123 243.623 11.6517C243.627 11.6706 243.561 11.7005 243.508 11.7116C243.258 11.7541 242.977 11.7572 242.705 11.7714C242.578 11.7777 242.437 11.7525 242.358 11.7084C242.24 11.6423 242.31 11.6123 242.525 11.6218C242.591 11.6249 242.661 11.6155 242.731 11.6123Z" fill="#FFE492"/>
<path d="M241.575 11.5195C241.794 11.5069 241.865 11.499 241.935 11.499C242.067 11.499 242.203 11.5179 242.282 11.5636C242.4 11.6297 242.33 11.6486 242.115 11.6518C241.838 11.6549 241.566 11.688 241.29 11.6943C241.145 11.6975 241.03 11.6597 241.022 11.6203C241.017 11.6014 241.083 11.5683 241.136 11.562C241.32 11.5384 241.522 11.5242 241.575 11.5195Z" fill="#FFE492"/>
<path d="M265.499 2.25435C265.359 2.26223 265.21 2.28428 265.078 2.27641C264.902 2.26538 264.832 2.22287 264.876 2.18349C264.902 2.16145 264.951 2.12995 265.003 2.12522C265.284 2.10318 265.57 2.08899 265.851 2.07324C266.018 2.09687 266.092 2.12993 266.048 2.16931C266.022 2.19135 265.974 2.22128 265.921 2.22758C265.785 2.24332 265.64 2.24648 265.499 2.25435Z" fill="#FFE492"/>
<path d="M95.1004 3.16317C95.2366 3.1616 95.3594 3.18207 95.4648 3.22144C95.3989 3.27183 95.3024 3.30491 95.1707 3.31908C95.1048 3.32538 95.0302 3.3301 94.9599 3.33167C94.8238 3.33482 94.7008 3.31277 94.5955 3.2734C94.6613 3.22301 94.7623 3.18994 94.8896 3.17576C94.9555 3.16946 95.0302 3.1679 95.1004 3.16317Z" fill="#FFE492"/>
<path d="M310.566 17.1352C310.562 17.0895 310.83 17.0375 311.071 17.0391C311.199 17.0407 311.33 17.0627 311.405 17.1052C311.519 17.1698 311.453 17.195 311.238 17.1903C311.106 17.1871 310.966 17.2139 310.834 17.2092C310.685 17.2076 310.597 17.173 310.566 17.1352Z" fill="#FFE492"/>
<path d="M246.492 11.8153C246.488 11.798 246.466 11.7775 246.479 11.7618C246.562 11.6752 247.067 11.6484 247.199 11.724C247.221 11.7382 247.23 11.7618 247.212 11.776C247.186 11.798 247.137 11.8263 247.085 11.8326C246.949 11.8484 246.808 11.8563 246.668 11.8578C246.606 11.8578 246.549 11.8311 246.492 11.8153Z" fill="#FFE492"/>
<path d="M11.1826 11.477C10.6645 11.51 10.6557 11.5069 10.7479 11.4281C10.8313 11.3573 10.985 11.3148 11.2089 11.3148C11.2748 11.3148 11.345 11.3116 11.4021 11.3179C11.4636 11.3258 11.5514 11.3415 11.5646 11.3604C11.591 11.3966 11.5162 11.436 11.3845 11.4628C11.3274 11.4754 11.2528 11.4722 11.1826 11.477Z" fill="#FFE492"/>
<path d="M101.587 2.94113C101.433 2.9679 101.301 2.95846 101.205 2.90806C101.108 2.85767 101.262 2.79781 101.53 2.78364C101.6 2.78049 101.675 2.7679 101.74 2.7742C101.806 2.77893 101.872 2.79781 101.912 2.81671C101.982 2.8482 101.938 2.89074 101.798 2.92696C101.741 2.94113 101.657 2.93798 101.587 2.94113Z" fill="#FFE492"/>
<path d="M309.652 17.0169C309.691 16.9964 309.731 16.9759 309.775 16.957C309.937 16.9838 310.007 17.0153 309.963 17.0515C309.937 17.0736 309.884 17.0925 309.845 17.1129C309.682 17.0862 309.617 17.0531 309.652 17.0169Z" fill="#FFE492"/>
<path d="M18.1367 29.4051C18.1367 29.3862 18.1982 29.3563 18.2465 29.35C18.3387 29.339 18.4528 29.361 18.5318 29.4051C18.6416 29.4681 18.5758 29.5012 18.3738 29.4838C18.2333 29.4712 18.1367 29.4397 18.1367 29.4051Z" fill="#FFE492"/>
<path d="M248.282 10.3494C248.339 10.3636 248.396 10.3778 248.448 10.3935C248.374 10.4518 248.282 10.477 248.185 10.4612C248.123 10.4518 248.071 10.4329 248.014 10.4187C248.088 10.3604 248.176 10.3384 248.282 10.3494Z" fill="#FFE492"/>
<path d="M246.761 10.2783C246.849 10.2546 246.954 10.2673 247.077 10.3129C247.038 10.3334 247.003 10.357 246.954 10.3728C246.871 10.398 246.761 10.3854 246.643 10.3381C246.678 10.3192 246.717 10.2987 246.761 10.2783Z" fill="#FFE492"/>
<path d="M245.596 10.3475C245.653 10.3617 245.71 10.3759 245.763 10.3916C245.688 10.4499 245.6 10.4751 245.499 10.4593C245.438 10.4499 245.385 10.431 245.328 10.4168C245.403 10.3585 245.491 10.3349 245.596 10.3475Z" fill="#FFE492"/>
<path d="M244.742 10.2638C244.808 10.2953 244.773 10.3331 244.646 10.3756C244.589 10.3615 244.523 10.3505 244.479 10.3316C244.409 10.3016 244.444 10.2622 244.575 10.2197C244.628 10.2355 244.685 10.2497 244.742 10.2638Z" fill="#FFE492"/>
</svg>
